<svg width="593" height="593" viewBox="0 0 593 593" fill="none" xmlns="http://www.w3.org/2000/svg">
<path d="M147.871 178.232L32.5795 244.79V111.116L147.871 44.5699V178.232Z" fill="white"/>
<path d="M30.3142 246.095L32.5676 247.447L150.124 179.584L147.871 178.232L30.3142 246.095Z" fill="#FAFAFA"/>
<path d="M154.393 35.8528L28.3098 108.649V254.836L154.393 182.039V35.8528ZM150.124 179.584L32.5794 247.447V111.116L150.124 43.2416V179.584Z" fill="#F0F0F0"/>
<path d="M150.124 179.584L147.87 178.232V44.5699L150.124 43.2416V179.584Z" fill="#E0E0E0"/>
<path d="M154.394 35.8528L152.093 34.5482L26.009 107.333L28.3099 108.649L154.394 35.8528Z" fill="#FAFAFA"/>
<path d="M26.009 107.333L28.3099 108.649V254.836L26.009 253.519V107.333Z" fill="#E0E0E0"/>
<path d="M34.4534 174.52V177.177L150.124 110.298L147.871 108.946L34.4534 174.52Z" fill="#FAFAFA"/>
<path d="M87.7166 79.296L90.0055 77.9677V214.31L87.7166 212.994V79.296Z" fill="#E0E0E0"/>
<path d="M94.2752 75.5126L90.0056 77.9677V214.31L94.2752 211.843V75.5126Z" fill="#F0F0F0"/>
<path d="M150.124 110.298V115.22L32.532 183.367V178.446L150.124 110.298Z" fill="#F0F0F0"/>
<path d="M90.0056 145.143L87.7166 143.731L32.5676 175.599V178.446L90.0056 145.143Z" fill="#FAFAFA"/>
<path d="M171.994 86.2222L173.903 87.3608L213.017 64.7793L211.108 63.6407L171.994 86.2222Z" fill="#FAFAFA"/>
<path d="M211.108 63.6408L173.903 85.1192V53.4767L211.108 32.0101V63.6408Z" fill="white"/>
<path d="M216.611 24.6569L170.357 51.4012V93.5872L216.611 66.8548V24.6569ZM213.053 64.7793L173.915 87.3133V53.4767L213.053 30.9427V64.7793Z" fill="#F0F0F0"/>
<path d="M213.017 64.7793L211.108 63.6408V32.0101L213.017 30.8953V64.7793Z" fill="#E0E0E0"/>
<path d="M216.611 24.6569L214.678 23.554L168.365 50.2864L170.298 51.4012L216.611 24.6569Z" fill="#FAFAFA"/>
<path d="M168.365 50.2864L170.298 51.4012V93.5873L168.365 92.4843V50.2864Z" fill="#E0E0E0"/>
<path d="M209.661 62.4666L175.35 82.2847V79.6992L183.925 59.893L189.274 64.8505L188.527 69.4403L199.201 47.8195L209.661 59.893V62.4666Z" fill="#F0F0F0"/>
<path d="M188.953 50.3338C188.214 50.8126 187.598 51.4599 187.157 52.2227C186.716 52.9855 186.461 53.8421 186.415 54.722C186.415 56.3469 187.542 56.9992 188.953 56.1927C189.693 55.7106 190.308 55.0609 190.749 54.2964C191.19 53.5318 191.444 52.674 191.492 51.7926C191.492 50.1797 190.353 49.5274 188.953 50.3338Z" fill="#F0F0F0"/>
<path d="M172.266 151.891L174.176 153.03L213.302 130.448L211.393 129.31L172.266 151.891Z" fill="#FAFAFA"/>
<path d="M211.393 129.31L174.176 150.788V119.146L211.393 97.679V129.31Z" fill="white"/>
<path d="M216.896 90.3257L170.642 117.07V159.256L216.896 132.524V90.3257ZM213.338 130.448L174.2 152.982V119.146L213.338 96.6115V130.448Z" fill="#F0F0F0"/>
<path d="M213.302 130.448L211.393 129.31V97.679L213.302 96.5641V130.448Z" fill="#E0E0E0"/>
<path d="M216.896 90.3258L214.962 89.2228L168.649 115.967L170.582 117.07L216.896 90.3258Z" fill="#FAFAFA"/>
<path d="M168.649 115.967L170.582 117.07V159.256L168.649 158.153V115.967Z" fill="#E0E0E0"/>
<path d="M209.934 128.147L175.635 147.953V145.368L184.21 125.562L189.547 130.519L188.811 135.109L199.473 113.488L209.934 125.562V128.147Z" fill="#F0F0F0"/>
<path d="M189.226 116.003C188.487 116.485 187.872 117.134 187.431 117.899C186.99 118.664 186.735 119.521 186.688 120.403C186.688 122.016 187.874 122.668 189.226 121.862C189.964 121.381 190.578 120.733 191.019 119.97C191.46 119.208 191.716 118.353 191.764 117.473C191.764 115.848 190.626 115.196 189.226 116.003Z" fill="#F0F0F0"/>
<path d="M371.028 174.223L368.395 175.801L327.371 152.116L330.004 150.539L371.028 174.223Z" fill="#FAFAFA"/>
<path d="M330.004 150.539L368.395 172.693V73.2829L330.004 51.1403V150.539Z" fill="white"/>
<path d="M322.402 154.986L373.4 184.411V70.4009L322.402 40.9763V154.986ZM327.336 49.5985L368.36 73.3185V175.836L327.336 152.116V49.5985Z" fill="#F0F0F0"/>
<path d="M327.371 152.116L330.004 150.539V51.1403L327.371 49.5985V152.116Z" fill="#E0E0E0"/>
<path d="M322.39 40.9763L325.071 39.4464L376.045 68.871L373.365 70.401L322.39 40.9763Z" fill="#FAFAFA"/>
<path d="M376.045 68.871L373.365 70.4009V184.423L376.045 182.881V68.871Z" fill="#E0E0E0"/>
<path d="M333.871 147.467L364.553 165.174V77.9439L333.871 60.2251V147.467Z" fill="#F0F0F0"/>
<path d="M333.871 147.467L364.553 165.174V77.9439L333.871 60.2251V147.467Z" fill="#F0F0F0"/>
<path d="M364.553 134.991C363.129 135.485 361.659 135.831 360.164 136.022C355.17 136.737 350.082 136.41 345.221 135.062C341.509 134.018 337.796 132.405 333.871 133.212V147.444L338.022 149.816C339.484 147.458 341.428 145.437 343.726 143.886C349.656 140.221 355.693 142.972 361.765 142.462C362.706 142.374 363.638 142.212 364.553 141.976V134.991Z" fill="#FAFAFA"/>
<path d="M364.553 120.486C357.686 119.3 350.641 118.6 345.743 112.623C341.793 107.807 339.943 100.241 338.627 92.7096C337.31 85.1785 336.433 77.2916 333.942 70.6381C333.942 70.567 333.883 70.5077 333.859 70.4365V115.908C334.238 116.631 334.63 117.355 335.045 118.043C339.552 125.645 346.193 131.29 353.784 129.986C357.342 129.369 361.018 127.282 364.553 126.428V120.486Z" fill="#FAFAFA"/>
<path d="M364.553 101.996C359.287 96.6709 356.464 86.7322 357.757 76.5207C357.852 75.7617 357.97 75.0026 358.101 74.2555L346.312 67.4004C346.312 68.5034 346.395 69.5945 346.419 70.6975C346.537 77.09 346.419 83.6367 347.379 89.6735C349.063 99.7782 354.116 107.843 360.829 111.152C362.019 111.73 363.273 112.168 364.564 112.457L364.553 101.996Z" fill="#FAFAFA"/>
<path d="M422.299 422.916L543.307 492.7V355.041L422.299 422.916Z" fill="#E0E0E0"/>
<g opacity="0.15">
<path d="M422.299 422.916L543.307 492.7V355.041L422.299 422.916Z" fill="black"/>
</g>
<path d="M428.027 76.3428V419.702L548.999 489.474V146.115L428.027 76.3428ZM479.144 257.73L442.651 236.631V98.9836L479.144 120.083V257.73ZM532.158 288.317L495.535 267.241V129.582L532.158 150.622V288.317Z" fill="#455A64"/>
<path d="M495.535 267.289L491.585 269.578L532.158 292.942V288.317L495.535 267.289Z" fill="#263238"/>
<path d="M442.651 236.69L438.69 238.979L479.144 262.355L483.093 260.066L442.651 236.69Z" fill="#263238"/>
<path d="M442.651 236.69V98.9836L438.678 96.6946L438.69 238.979L442.651 236.69Z" fill="#37474F"/>
<path d="M491.585 269.578L479.144 262.355V120.13L491.585 127.353V269.578Z" fill="#455A64"/>
<path d="M491.585 269.578L495.535 267.289V129.582L491.585 127.353V269.578Z" fill="#37474F"/>
<path opacity="0.1" d="M491.585 288.589L532.158 311.942V458.579L491.585 435.215V288.589Z" fill="black"/>
<path d="M494.372 297.816L525.754 315.867V447.252L494.372 429.202V297.816Z" fill="#455A64"/>
<path d="M532.158 311.942L525.754 315.867V447.252L532.158 458.579V311.942Z" fill="#37474F"/>
<path d="M491.585 288.589L494.372 297.816V429.202L491.585 435.215V288.589Z" fill="#37474F"/>
<path d="M491.585 435.215L494.372 429.202L525.754 447.252L532.158 458.579L491.585 435.215Z" fill="#263238"/>
<path opacity="0.1" d="M438.678 257.979L479.144 281.355L479.132 427.992L438.678 404.616V257.979Z" fill="black"/>
<path d="M441.465 267.206L472.74 285.28V416.666L441.465 398.603V267.206Z" fill="#455A64"/>
<path d="M479.144 281.355L472.74 285.28V416.666L479.132 427.992L479.144 281.355Z" fill="#37474F"/>
<path d="M438.678 257.979L441.465 267.206V398.603L438.678 404.616V257.979Z" fill="#37474F"/>
<path d="M438.678 404.616L441.465 398.603L472.74 416.666L479.132 427.992L438.678 404.616Z" fill="#263238"/>
<path d="M545.335 297.069L543.307 298.243L543.295 331.902L545.335 330.728V297.069Z" fill="#E0E0E0"/>
<path d="M543.307 298.243L532.372 291.934V325.593L543.295 331.902L543.307 298.243Z" fill="#FAFAFA"/>
<path opacity="0.05" d="M532.372 301.244L537.116 304.007V309.475C537.116 309.589 537.086 309.701 537.03 309.8C536.973 309.899 536.891 309.981 536.793 310.039C536.695 310.096 536.583 310.127 536.469 310.128C536.355 310.129 536.243 310.1 536.143 310.044L532.336 307.838L532.372 301.244Z" fill="black"/>
<path d="M532.372 291.934L534.4 290.76L545.335 297.069L543.307 298.243L532.372 291.934Z" fill="#EBEBEB"/>
<path d="M539.108 302.833L534.091 305.727L532.087 302.24L537.104 299.346C537.267 299.276 537.445 299.249 537.622 299.267C537.799 299.286 537.967 299.35 538.112 299.453C538.524 299.723 538.866 300.085 539.111 300.512C539.356 300.939 539.498 301.417 539.523 301.908C539.542 302.085 539.514 302.264 539.441 302.427C539.368 302.589 539.253 302.729 539.108 302.833Z" fill="#E0E0E0"/>
<path opacity="0.1" d="M537.151 303.96L535.337 305.015V302.62L533.392 301.493L535.218 300.438L537.151 301.564V303.96Z" fill="black"/>
<path d="M534.732 302.987L534.72 308.253L514.677 296.678V291.424L534.732 302.987Z" fill="#FAFAFA"/>
<path d="M534.732 302.987L536.546 301.944V307.198L534.72 308.253L534.732 302.987Z" fill="#E0E0E0"/>
<path d="M514.677 291.424L516.503 290.368L536.546 301.944L534.732 302.987L514.677 291.424Z" fill="#EBEBEB"/>
<path d="M539.63 317.658C539.595 317.02 539.411 316.398 539.091 315.844C538.772 315.29 538.327 314.818 537.792 314.468C536.772 313.875 535.942 314.349 535.942 315.523C535.996 316.493 536.391 317.413 537.056 318.121V321.56C537.069 321.775 537.132 321.984 537.241 322.17C537.351 322.356 537.503 322.513 537.685 322.628L537.899 322.758C538.242 322.96 538.515 322.758 538.515 322.402V318.963C539.215 319.034 539.63 318.524 539.63 317.658Z" fill="#455A64"/>
<path d="M442.651 98.9836L479.144 120.13V257.777L442.651 236.69V98.9836Z" fill="#BA68C8"/>
<path opacity="0.4" d="M442.651 98.9836L479.144 120.13V257.777L442.651 236.69V98.9836Z" fill="white"/>
<path d="M495.535 129.582L532.158 150.658V288.317L495.535 267.301V129.582Z" fill="#BA68C8"/>
<path opacity="0.4" d="M495.535 129.582L532.158 150.658V288.317L495.535 267.301V129.582Z" fill="white"/>
<path opacity="0.2" d="M469.336 114.449L442.651 141.134V148.143L473.772 117.023L469.336 114.449ZM453.23 105.115L442.651 115.694V130.152L462.386 110.417L453.23 105.115ZM467.462 250.993L479.144 239.335V232.326L463.014 248.455L467.462 250.993ZM495.546 129.547V129.914L495.784 129.689L495.546 129.547ZM457.168 245.039L479.144 223.098V216.089L452.72 242.513L457.168 245.039ZM505.426 135.228L495.546 145.107V152.128L509.873 137.789L505.426 135.228ZM522.03 144.716L495.606 171.14V185.597L531.186 150.017L522.03 144.716ZM442.722 182.774L479.144 146.352V128.088L442.651 164.581L442.722 182.774ZM495.606 263.648L532.229 227.024V208.819L495.535 245.502L495.606 263.648ZM505.983 273.136L532.229 246.89V239.88L501.524 270.574L505.983 273.136ZM495.535 222.968L532.158 186.321V179.311L495.535 215.935V222.968ZM442.651 236.714L443.837 237.402L479.144 202.059V187.601L442.651 224.154V236.714ZM522.919 283.039L532.158 273.8V259.319L513.74 277.737L522.919 283.039ZM442.651 205.071L479.144 168.554V161.545L442.651 198.062V205.071ZM495.535 199.722V206.732L532.158 170.108V163.075L495.535 199.722Z" fill="white"/>
<path d="M554.787 486.141L549.023 489.474V146.115L554.787 142.794V486.141Z" fill="#263238"/>
<path d="M433.78 73.0102L554.787 142.794L549.023 146.115L428.027 76.3428L433.78 73.0102Z" fill="#37474F"/>
<path d="M428.027 419.702L422.299 422.916V73.0339L428.016 76.331L428.027 419.702Z" fill="#E0E0E0"/>
<path d="M422.299 422.916L404.794 412.799V42.7079L560.836 132.702V502.769L543.307 492.7V142.818L422.311 73.0339L422.299 422.916Z" fill="#F5F5F5"/>
<path d="M405.98 44.7596L559.65 133.389V500.729L544.493 492.012V142.142L543.9 141.798L422.928 72.0139L421.149 70.9939V420.864L406.015 412.123V44.7596M404.829 42.7078V412.811L422.335 422.916V73.0457L543.307 142.83V492.7L560.836 502.769V132.737L404.794 42.696L404.829 42.7078Z" fill="#E0E0E0"/>
<path d="M404.794 42.7078L560.836 132.702L566.457 129.44L410.415 39.4464L404.794 42.7078Z" fill="#FAFAFA"/>
<path d="M560.836 502.769V132.702L566.457 129.44V499.531L560.836 502.769Z" fill="#E0E0E0"/>
<path d="M351.424 411.542C342.908 402.754 337.903 380.647 346.205 373.673H388.486C396.788 380.647 391.795 402.73 383.28 411.53L383.054 411.767L382.758 412.064C382.521 412.301 382.26 412.526 381.987 412.752L381.785 412.918C381.572 413.084 381.37 413.25 381.145 413.404C380.791 413.662 380.423 413.9 380.042 414.116C373.033 418.207 361.671 418.207 354.661 414.116C354.275 413.902 353.903 413.665 353.547 413.404L352.954 412.941L352.705 412.74C352.432 412.526 352.195 412.301 351.957 412.076L351.625 411.744L351.424 411.542Z" fill="#EBEBEB"/>
<path d="M384.821 370.922C394.464 376.543 394.464 385.675 384.821 391.309C375.179 396.942 359.524 396.942 349.882 391.309C340.24 385.675 340.24 376.543 349.882 370.922C359.524 365.3 375.167 365.288 384.821 370.922Z" fill="#FAFAFA"/>
<path d="M380.172 373.59C387.288 377.729 387.288 384.43 380.172 388.569C373.056 392.708 361.611 392.708 354.519 388.569C347.427 384.43 347.403 377.729 354.519 373.59C361.635 369.451 373.092 369.486 380.172 373.59Z" fill="#E0E0E0"/>
<path d="M354.519 380.706C361.635 376.579 373.092 376.579 380.172 380.706C381.891 381.648 383.35 383 384.418 384.644C383.35 386.287 381.891 387.64 380.172 388.581C373.056 392.72 361.611 392.72 354.519 388.581C352.801 387.643 351.345 386.289 350.285 384.644C351.345 382.998 352.801 381.644 354.519 380.706Z" fill="#EBEBEB"/>
<path d="M364.505 324.347C361.268 327.905 352.266 328.83 348.53 319.342C345.031 310.447 341.26 302.015 340.228 298.742C340.076 298.315 340.012 297.863 340.039 297.411C340.066 296.959 340.184 296.518 340.385 296.113C340.587 295.708 340.868 295.347 341.212 295.053C341.555 294.759 341.955 294.537 342.386 294.401C342.386 294.401 342.647 289.514 350.926 292.823C359.204 296.132 365.051 301.125 368.716 309.297C372.38 317.468 370.032 323.256 364.505 324.347Z" fill="#E0E0E0"/>
<path opacity="0.45" d="M364.505 324.347C361.268 327.905 352.266 328.83 348.53 319.342C345.031 310.447 341.26 302.015 340.228 298.742C340.076 298.315 340.012 297.863 340.039 297.411C340.066 296.959 340.184 296.518 340.385 296.113C340.587 295.708 340.868 295.347 341.212 295.053C341.555 294.759 341.955 294.537 342.386 294.401C342.386 294.401 342.647 289.514 350.926 292.823C359.204 296.132 365.051 301.125 368.716 309.297C372.38 317.468 370.032 323.256 364.505 324.347Z" fill="white"/>
<path d="M368.087 336.895C367.945 335.234 367.708 333.583 367.375 331.95C366.69 328.705 365.771 325.514 364.624 322.402C362.296 316.064 359.065 310.096 355.029 304.683C352.788 301.599 350.263 298.732 347.486 296.12C347.403 296.049 347.332 296.239 347.391 296.298C356.679 305.983 363.128 318.032 366.035 331.131C366.45 332.934 366.83 334.748 367.162 336.563C367.494 338.378 367.696 340.275 368.004 342.125C368.004 342.315 368.324 342.422 368.336 342.125C368.387 340.378 368.304 338.63 368.087 336.895Z" fill="#E0E0E0"/>
<path opacity="0.1" d="M368.087 336.895C367.945 335.234 367.708 333.583 367.375 331.95C366.69 328.705 365.771 325.514 364.624 322.402C362.296 316.064 359.065 310.096 355.029 304.683C352.788 301.599 350.263 298.732 347.486 296.12C347.403 296.049 347.332 296.239 347.391 296.298C356.679 305.983 363.128 318.032 366.035 331.131C366.45 332.934 366.83 334.748 367.162 336.563C367.494 338.378 367.696 340.275 368.004 342.125C368.004 342.315 368.324 342.422 368.336 342.125C368.387 340.378 368.304 338.63 368.087 336.895Z" fill="black"/>
<path d="M370.862 321.892C363.414 324.193 357.887 318.334 359.809 309.285C361.73 300.236 371.289 290.06 374.895 292.776C377.16 290.523 382.129 291.329 384.466 298.706C386.802 306.083 384.679 325.118 370.862 321.892Z" fill="#E0E0E0"/>
<path opacity="0.25" d="M370.862 321.892C363.414 324.193 357.887 318.334 359.809 309.285C361.73 300.236 371.289 290.06 374.895 292.776C377.16 290.523 382.129 291.329 384.466 298.706C386.802 306.083 384.679 325.118 370.862 321.892Z" fill="white"/>
<path d="M375.227 298.315C373.111 303.618 371.456 309.094 370.281 314.681C369.011 320.337 368.053 326.058 367.411 331.819C366.207 342.968 365.708 354.183 365.917 365.395C365.917 368.49 365.976 371.586 366.035 374.681C366.095 377.777 366.035 381.097 366.32 384.276C366.427 385.462 368.158 385.165 368.182 384.051C368.289 378.476 367.98 372.867 367.921 367.292C367.862 361.718 367.921 356.263 368.028 350.748C368.217 339.513 369.224 328.308 371.04 317.219C371.574 314.124 372.167 311.04 372.878 307.992C373.59 304.944 374.563 301.624 375.405 298.445C375.44 298.315 375.298 298.149 375.227 298.315Z" fill="#E0E0E0"/>
<path opacity="0.1" d="M375.227 298.315C373.111 303.618 371.456 309.094 370.281 314.681C369.011 320.337 368.053 326.058 367.411 331.819C366.207 342.968 365.708 354.183 365.917 365.395C365.917 368.49 365.976 371.586 366.035 374.681C366.095 377.777 366.035 381.097 366.32 384.276C366.427 385.462 368.158 385.165 368.182 384.051C368.289 378.476 367.98 372.867 367.921 367.292C367.862 361.718 367.921 356.263 368.028 350.748C368.217 339.513 369.224 328.308 371.04 317.219C371.574 314.124 372.167 311.04 372.878 307.992C373.59 304.944 374.563 301.624 375.405 298.445C375.44 298.315 375.298 298.149 375.227 298.315Z" fill="black"/>
<path d="M358.753 348.601C355.504 352.278 348.079 351.957 343.062 345.387C338.046 338.816 335.057 314.124 342.09 315.737C343.584 312.44 363.011 320.362 365.502 336.468C367.316 348.15 358.753 348.601 358.753 348.601Z" fill="#E0E0E0"/>
<path opacity="0.25" d="M358.753 348.601C355.504 352.278 348.079 351.957 343.062 345.387C338.046 338.816 335.057 314.124 342.09 315.737C343.584 312.44 363.011 320.362 365.502 336.468C367.316 348.15 358.753 348.601 358.753 348.601Z" fill="white"/>
<path d="M364.565 360.259C364.345 358.741 364.024 357.24 363.604 355.764C362.793 352.74 361.827 349.759 360.71 346.834C358.408 340.871 355.498 335.16 352.029 329.791C350.163 326.762 348.107 323.854 345.873 321.086C345.814 321.015 345.755 321.181 345.79 321.24C347.522 323.766 349.277 326.269 350.843 328.913C352.408 331.558 353.914 334.499 355.243 337.381C357.825 342.95 359.97 348.712 361.659 354.614C362.133 356.286 362.525 357.982 363.011 359.655C363.497 361.327 364.197 363.082 364.612 364.837C364.671 365.086 365.003 365.181 364.968 364.837C364.814 363.284 364.766 361.73 364.565 360.259Z" fill="#E0E0E0"/>
<path opacity="0.1" d="M364.565 360.259C364.345 358.741 364.024 357.24 363.604 355.764C362.793 352.74 361.827 349.759 360.71 346.834C358.408 340.871 355.498 335.16 352.029 329.791C350.163 326.762 348.107 323.854 345.873 321.086C345.814 321.015 345.755 321.181 345.79 321.24C347.522 323.766 349.277 326.269 350.843 328.913C352.408 331.558 353.914 334.499 355.243 337.381C357.825 342.95 359.97 348.712 361.659 354.614C362.133 356.286 362.525 357.982 363.011 359.655C363.497 361.327 364.197 363.082 364.612 364.837C364.671 365.086 365.003 365.181 364.968 364.837C364.814 363.284 364.766 361.73 364.565 360.259Z" fill="black"/>
<path d="M370.649 344.948C366.391 343.976 366.178 338.876 371.503 332.602C376.828 326.328 390.206 323.6 390.846 326.245C393.823 326.245 393.823 335.567 387.229 344.13C380.635 352.693 371.04 350.7 370.649 344.948Z" fill="#E0E0E0"/>
<path opacity="0.25" d="M370.649 344.948C366.391 343.976 366.178 338.876 371.503 332.602C376.828 326.328 390.206 323.6 390.846 326.245C393.823 326.245 393.823 335.567 387.229 344.13C380.635 352.693 371.04 350.7 370.649 344.948Z" fill="white"/>
<path d="M378.975 335.84C373.352 339.755 369.06 345.296 366.676 351.72C366.533 352.088 367.162 352.622 367.316 352.218C369.729 345.864 373.755 340.248 378.998 335.923C378.998 335.923 379.034 335.792 378.975 335.84Z" fill="#E0E0E0"/>
<path opacity="0.1" d="M378.975 335.84C373.352 339.755 369.06 345.296 366.676 351.72C366.533 352.088 367.162 352.622 367.316 352.218C369.729 345.864 373.755 340.248 378.998 335.923C378.998 335.923 379.034 335.792 378.975 335.84Z" fill="black"/>
<path d="M375.5 376.057C369.57 378.429 372.143 385.45 377.872 390.787C382.837 395.096 389.231 397.397 395.804 397.239C399.753 396.954 400.773 396.409 400.773 396.409C401.127 393.169 401.127 389.9 400.773 386.66C400.14 383.098 398.492 379.793 396.029 377.143C393.566 374.493 390.391 372.609 386.885 371.716C377.706 369.226 375.5 372.558 375.5 376.057Z" fill="#E0E0E0"/>
<path opacity="0.45" d="M375.5 376.057C369.57 378.429 372.143 385.45 377.872 390.787C382.837 395.096 389.231 397.397 395.804 397.239C399.753 396.954 400.773 396.409 400.773 396.409C401.127 393.169 401.127 389.9 400.773 386.66C400.14 383.098 398.492 379.793 396.029 377.143C393.566 374.493 390.391 372.609 386.885 371.716C377.706 369.226 375.5 372.558 375.5 376.057Z" fill="white"/>
<path d="M391.807 386.411C389.172 383.267 386.142 380.477 382.793 378.109C379.437 375.903 374.966 374.017 370.933 375.393C369.38 375.926 366.948 377.48 367.245 379.413C367.245 379.603 367.613 380.077 367.838 379.817C368.461 378.922 369.172 378.091 369.961 377.338C370.888 376.661 371.983 376.25 373.128 376.152C376.02 375.938 378.91 376.59 381.43 378.026C385.415 380.137 388.629 383.422 391.795 386.553C391.795 386.541 391.843 386.446 391.807 386.411Z" fill="#E0E0E0"/>
<path opacity="0.1" d="M391.807 386.411C389.172 383.267 386.142 380.477 382.793 378.109C379.437 375.903 374.966 374.017 370.933 375.393C369.38 375.926 366.948 377.48 367.245 379.413C367.245 379.603 367.613 380.077 367.838 379.817C368.461 378.922 369.172 378.091 369.961 377.338C370.888 376.661 371.983 376.25 373.128 376.152C376.02 375.938 378.91 376.59 381.43 378.026C385.415 380.137 388.629 383.422 391.795 386.553C391.795 386.541 391.843 386.446 391.807 386.411Z" fill="black"/>
<path d="M353.084 345.897C353.642 343.217 349.763 336.8 337.666 335.567C325.569 334.333 316.543 339.457 314.717 341.793C312.891 344.13 311.977 346.597 314.171 347.213C316.366 347.83 323.897 348.554 328.854 350.843C333.812 353.132 343.881 359.856 350.748 357.852C357.615 355.847 356.5 348.565 353.084 345.897Z" fill="#E0E0E0"/>
<path opacity="0.45" d="M353.084 345.897C353.642 343.217 349.763 336.8 337.666 335.567C325.569 334.333 316.543 339.457 314.717 341.793C312.891 344.13 311.977 346.597 314.171 347.213C316.366 347.83 323.897 348.554 328.854 350.843C333.812 353.132 343.881 359.856 350.748 357.852C357.615 355.847 356.5 348.565 353.084 345.897Z" fill="white"/>
<path d="M362.264 355.243C357.164 344.723 344.035 341.568 333.266 341.568C329.736 341.578 326.222 342.032 322.806 342.92C322.806 342.92 322.746 343.05 322.806 343.05C328.587 342.066 334.487 342.006 340.287 342.873C346.027 343.621 351.505 345.732 356.263 349.028C358.572 350.762 360.511 352.939 361.967 355.432C362.169 355.705 362.359 355.468 362.264 355.243Z" fill="#E0E0E0"/>
<path opacity="0.1" d="M362.264 355.243C357.164 344.723 344.035 341.568 333.266 341.568C329.736 341.578 326.222 342.032 322.806 342.92C322.806 342.92 322.746 343.05 322.806 343.05C328.587 342.066 334.487 342.006 340.287 342.873C346.027 343.621 351.505 345.732 356.263 349.028C358.572 350.762 360.511 352.939 361.967 355.432C362.169 355.705 362.359 355.468 362.264 355.243Z" fill="black"/>
<path d="M381.216 331.807C381.062 336.029 387.004 338.484 392.756 334.832C398.508 331.179 404.533 327.621 409.87 326.245C415.207 324.869 417.721 320.517 416.037 318.417C414.353 316.318 411.672 311.005 397.666 312.736C383.659 314.468 378.69 320.789 376.768 325.249C374.847 329.708 379.105 333.029 381.216 331.807Z" fill="#E0E0E0"/>
<path opacity="0.45" d="M381.216 331.807C381.062 336.029 387.004 338.484 392.756 334.832C398.508 331.179 404.533 327.621 409.87 326.245C415.207 324.869 417.721 320.517 416.037 318.417C414.353 316.318 411.672 311.005 397.666 312.736C383.659 314.468 378.69 320.789 376.768 325.249C374.847 329.708 379.105 333.029 381.216 331.807Z" fill="white"/>
<path d="M404.023 318.405C401.997 318.205 399.951 318.419 398.01 319.034C396.241 319.487 394.518 320.102 392.863 320.872C389.564 322.411 386.589 324.564 384.098 327.217C383.391 327.964 382.733 328.757 382.129 329.589C381.512 330.331 381.005 331.158 380.623 332.044C380.528 332.317 380.943 332.768 381.18 332.483C381.88 331.689 382.366 330.704 383.054 329.862C383.751 328.958 384.504 328.099 385.308 327.289C386.927 325.656 388.739 324.226 390.704 323.031C392.579 321.867 394.565 320.894 396.634 320.125C397.82 319.71 398.947 319.366 400.121 319.07C401.358 318.695 402.647 318.519 403.94 318.548C404.046 318.56 404.082 318.405 404.023 318.405Z" fill="#E0E0E0"/>
<path opacity="0.1" d="M404.023 318.405C401.997 318.205 399.951 318.419 398.01 319.034C396.241 319.487 394.518 320.102 392.863 320.872C389.564 322.411 386.589 324.564 384.098 327.217C383.391 327.964 382.733 328.757 382.129 329.589C381.512 330.331 381.005 331.158 380.623 332.044C380.528 332.317 380.943 332.768 381.18 332.483C381.88 331.689 382.366 330.704 383.054 329.862C383.751 328.958 384.504 328.099 385.308 327.289C386.927 325.656 388.739 324.226 390.704 323.031C392.579 321.867 394.565 320.894 396.634 320.125C397.82 319.71 398.947 319.366 400.121 319.07C401.358 318.695 402.647 318.519 403.94 318.548C404.046 318.56 404.082 318.405 404.023 318.405Z" fill="black"/>
<path d="M371.218 354.614C369.249 352.645 363.924 353.108 361.398 358.907C358.872 364.707 364.173 371.064 364.766 372.843C367.198 371.443 369.095 372.274 373.377 371.443C375.765 370.88 377.886 369.511 379.383 367.567C380.88 365.623 381.661 363.222 381.596 360.769C381.252 355.444 379.01 351.934 371.218 354.614Z" fill="#E0E0E0"/>
<path opacity="0.45" d="M371.218 354.614C369.249 352.645 363.924 353.108 361.398 358.907C358.872 364.707 364.173 371.064 364.766 372.843C367.198 371.443 369.095 372.274 373.377 371.443C375.765 370.88 377.886 369.511 379.383 367.567C380.88 365.623 381.661 363.222 381.596 360.769C381.252 355.444 379.01 351.934 371.218 354.614Z" fill="white"/>
<path d="M371.088 354.021C370.016 354.699 369.122 355.621 368.478 356.713C367.787 357.724 367.222 358.815 366.794 359.963C365.878 362.312 365.623 364.868 366.059 367.352C366.059 367.447 366.154 367.352 366.142 367.352C365.932 364.856 366.34 362.347 367.328 360.046C367.801 359.004 368.394 358.021 369.095 357.116C369.458 356.631 369.855 356.171 370.281 355.741C370.697 355.386 371.075 354.989 371.408 354.555C371.609 354.353 371.384 353.867 371.088 354.021Z" fill="#E0E0E0"/>
<path opacity="0.1" d="M371.088 354.021C370.016 354.699 369.122 355.621 368.478 356.713C367.787 357.724 367.222 358.815 366.794 359.963C365.878 362.312 365.623 364.868 366.059 367.352C366.059 367.447 366.154 367.352 366.142 367.352C365.932 364.856 366.34 362.347 367.328 360.046C367.801 359.004 368.394 358.021 369.095 357.116C369.458 356.631 369.855 356.171 370.281 355.741C370.697 355.386 371.075 354.989 371.408 354.555C371.609 354.353 371.384 353.867 371.088 354.021Z" fill="black"/>
<path d="M361.92 366.355C361.742 362.038 357.057 358.623 350.392 356.642C347.122 355.616 343.628 355.538 340.315 356.418C337.002 357.297 334.007 359.098 331.677 361.611C326.814 366.901 324.3 371.396 326.28 372.665C328.261 373.934 337.073 377.16 342.884 378.963C348.696 380.765 356.203 381.335 361.967 377.883C367.731 374.432 367.316 368.514 361.92 366.355Z" fill="#E0E0E0"/>
<path opacity="0.25" d="M361.92 366.355C361.742 362.038 357.057 358.623 350.392 356.642C347.122 355.616 343.628 355.538 340.315 356.418C337.002 357.297 334.007 359.098 331.677 361.611C326.814 366.901 324.3 371.396 326.28 372.665C328.261 373.934 337.073 377.16 342.884 378.963C348.696 380.765 356.203 381.335 361.967 377.883C367.731 374.432 367.316 368.514 361.92 366.355Z" fill="white"/>
<path d="M362.287 365.869C360.034 364.735 357.572 364.077 355.053 363.936C352.641 363.706 350.211 363.738 347.806 364.031C345.263 364.346 342.752 364.877 340.299 365.62C339.018 365.988 337.749 366.415 336.492 366.877C335.294 367.264 334.128 367.744 333.005 368.312C333.005 368.312 332.934 368.478 333.005 368.455C334.191 368.206 335.377 367.731 336.563 367.363C337.749 366.996 339.137 366.593 340.441 366.249C342.866 365.599 345.336 365.131 347.83 364.849C350.328 364.564 352.851 364.564 355.349 364.849C357.663 365.228 359.943 365.788 362.169 366.521C362.691 366.676 362.548 366.023 362.287 365.869Z" fill="#E0E0E0"/>
<path opacity="0.1" d="M362.287 365.869C360.034 364.735 357.572 364.077 355.053 363.936C352.641 363.706 350.211 363.738 347.806 364.031C345.263 364.346 342.752 364.877 340.299 365.62C339.018 365.988 337.749 366.415 336.492 366.877C335.294 367.264 334.128 367.744 333.005 368.312C333.005 368.312 332.934 368.478 333.005 368.455C334.191 368.206 335.377 367.731 336.563 367.363C337.749 366.996 339.137 366.593 340.441 366.249C342.866 365.599 345.336 365.131 347.83 364.849C350.328 364.564 352.851 364.564 355.349 364.849C357.663 365.228 359.943 365.788 362.169 366.521C362.691 366.676 362.548 366.023 362.287 365.869Z" fill="black"/>
<path d="M375.654 359.927C370.91 356.144 372.487 347.071 389.15 346.585C405.814 346.099 417.709 350.451 417.176 355.812C419.856 358.492 418.504 366 405.007 368.348C391.511 370.696 372.226 369.522 375.654 359.927Z" fill="#E0E0E0"/>
<path opacity="0.25" d="M375.654 359.927C370.91 356.144 372.487 347.071 389.15 346.585C405.814 346.099 417.709 350.451 417.176 355.812C419.856 358.492 418.504 366 405.007 368.348C391.511 370.696 372.226 369.522 375.654 359.927Z" fill="white"/>
<path d="M409.336 355.871C404.419 355.061 399.43 354.771 394.452 355.005C389.823 354.97 385.207 355.5 380.706 356.583C379.554 356.878 378.431 357.275 377.35 357.769C376.849 358.002 376.362 358.263 375.891 358.552C375.511 358.777 375.096 358.978 374.954 359.417C374.94 359.487 374.943 359.559 374.963 359.628C374.983 359.696 375.018 359.759 375.067 359.811C375.115 359.863 375.176 359.903 375.243 359.927C375.31 359.952 375.381 359.96 375.452 359.951C376.465 359.555 377.441 359.071 378.37 358.504C379.305 358.089 380.268 357.741 381.252 357.46C383.144 356.905 385.08 356.508 387.039 356.274C391.701 355.703 396.397 355.446 401.093 355.504C403.833 355.504 406.561 355.753 409.3 355.966C409.395 356.073 409.419 355.883 409.336 355.871Z" fill="#E0E0E0"/>
<path opacity="0.1" d="M409.336 355.871C404.419 355.061 399.43 354.771 394.452 355.005C389.823 354.97 385.207 355.5 380.706 356.583C379.554 356.878 378.431 357.275 377.35 357.769C376.849 358.002 376.362 358.263 375.891 358.552C375.511 358.777 375.096 358.978 374.954 359.417C374.94 359.487 374.943 359.559 374.963 359.628C374.983 359.696 375.018 359.759 375.067 359.811C375.115 359.863 375.176 359.903 375.243 359.927C375.31 359.952 375.381 359.96 375.452 359.951C376.465 359.555 377.441 359.071 378.37 358.504C379.305 358.089 380.268 357.741 381.252 357.46C383.144 356.905 385.08 356.508 387.039 356.274C391.701 355.703 396.397 355.446 401.093 355.504C403.833 355.504 406.561 355.753 409.3 355.966C409.395 356.073 409.419 355.883 409.336 355.871Z" fill="black"/>
<path d="M247.969 398.496C247.747 398.498 247.526 398.454 247.322 398.366C247.118 398.278 246.934 398.149 246.783 397.986L187.163 334.903L127.649 397.761C127.352 398.075 126.942 398.259 126.509 398.271C126.077 398.283 125.657 398.123 125.342 397.826C125.028 397.529 124.844 397.119 124.832 396.686C124.82 396.253 124.98 395.834 125.277 395.519L185.977 331.475C186.13 331.315 186.314 331.187 186.518 331.099C186.721 331.012 186.941 330.966 187.163 330.965C187.385 330.966 187.604 331.012 187.808 331.099C188.011 331.187 188.195 331.315 188.349 331.475L249.143 395.816C249.294 395.966 249.414 396.144 249.496 396.34C249.577 396.537 249.619 396.747 249.619 396.96C249.619 397.173 249.577 397.384 249.496 397.58C249.414 397.776 249.294 397.955 249.143 398.105C248.817 398.383 248.396 398.523 247.969 398.496Z" fill="#263238"/>
<path d="M187.163 446.304C186.732 446.304 186.318 446.132 186.014 445.828C185.709 445.523 185.538 445.11 185.538 444.679V340.192C185.538 339.761 185.709 339.348 186.014 339.043C186.318 338.739 186.732 338.567 187.163 338.567C187.594 338.567 188.007 338.739 188.312 339.043C188.616 339.348 188.787 339.761 188.787 340.192V444.679C188.787 445.11 188.616 445.523 188.312 445.828C188.007 446.132 187.594 446.304 187.163 446.304Z" fill="#37474F"/>
<path d="M251.811 408.269C251.487 408.268 251.171 408.171 250.902 407.989C250.634 407.807 250.426 407.55 250.305 407.249L218.224 326.15C218.14 325.95 218.096 325.735 218.096 325.519C218.096 325.302 218.139 325.087 218.223 324.887C218.307 324.687 218.431 324.506 218.586 324.354C218.741 324.203 218.925 324.084 219.127 324.005C219.329 323.926 219.545 323.888 219.762 323.893C219.979 323.899 220.192 323.948 220.39 324.037C220.588 324.126 220.766 324.255 220.913 324.414C221.06 324.573 221.174 324.76 221.248 324.964L253.27 406.063C253.426 406.465 253.416 406.913 253.242 407.309C253.069 407.704 252.747 408.015 252.345 408.174C252.174 408.234 251.993 408.266 251.811 408.269Z" fill="#37474F"/>
<path d="M122.514 408.269C122.311 408.267 122.111 408.231 121.921 408.162C121.521 408.001 121.202 407.689 121.031 407.294C120.86 406.899 120.851 406.452 121.008 406.051L153.03 324.952C153.094 324.736 153.202 324.536 153.347 324.364C153.493 324.192 153.673 324.053 153.875 323.954C154.078 323.855 154.298 323.8 154.523 323.791C154.748 323.782 154.973 323.82 155.182 323.903C155.392 323.985 155.582 324.11 155.741 324.27C155.899 324.43 156.023 324.621 156.104 324.831C156.185 325.042 156.221 325.266 156.21 325.491C156.2 325.716 156.142 325.936 156.042 326.138L124.02 407.237C123.9 407.539 123.692 407.798 123.424 407.982C123.156 408.166 122.839 408.266 122.514 408.269Z" fill="#37474F"/>
<path d="M249.606 396.029L253.84 407.201C253.851 407.296 253.851 407.391 253.84 407.486C253.851 407.557 253.851 407.629 253.84 407.699C253.721 408.005 253.493 408.254 253.199 408.399C252.801 408.604 252.36 408.711 251.912 408.711C251.465 408.711 251.023 408.604 250.625 408.399C250.405 408.287 250.229 408.103 250.127 407.877V407.723L246.19 397.239L249.606 396.029Z" fill="#E0E0E0"/>
<path d="M124.732 396.029L120.498 407.201C120.48 407.295 120.48 407.392 120.498 407.486V407.699C120.624 408 120.85 408.247 121.138 408.399C121.536 408.604 121.977 408.711 122.425 408.711C122.872 408.711 123.314 408.604 123.712 408.399C123.932 408.283 124.111 408.1 124.222 407.877V407.723L128.147 397.239L124.732 396.029Z" fill="#E0E0E0"/>
<path d="M189.037 436.59V445.841C189.021 446.005 188.963 446.161 188.867 446.295C188.771 446.428 188.641 446.533 188.491 446.6C188.082 446.81 187.629 446.92 187.169 446.92C186.709 446.92 186.255 446.81 185.846 446.6C185.695 446.534 185.563 446.429 185.465 446.296C185.367 446.162 185.306 446.006 185.289 445.841V436.59C185.865 436.281 186.509 436.119 187.163 436.119C187.817 436.119 188.46 436.281 189.037 436.59Z" fill="#E0E0E0"/>
<path d="M248.028 331.072C248.028 328.818 246.036 326.387 241.837 323.671C234.081 318.631 206.044 302.323 195.18 296.263C195.175 296.241 195.163 296.221 195.146 296.206C195.129 296.191 195.108 296.182 195.085 296.18C186.724 291.104 181.838 252.167 176.05 233.82C175.714 232.673 175.318 231.545 174.864 230.44C174.864 230.357 174.793 230.274 174.769 230.191C174.745 230.108 174.544 229.704 174.437 229.444C174.33 229.183 174.318 229.194 174.271 229.076C173.355 226.985 172.042 225.092 170.404 223.502C169.847 222.963 169.211 222.511 168.519 222.162L165.103 220.252C159.422 216.848 146.02 224.083 136.734 229.171C130.958 232.337 126.06 236.097 123.036 243.106C121.412 247.133 120.444 251.393 120.166 255.725C119.347 265.403 122.538 301.173 124.447 315.179C127.282 338.591 130.78 338.627 135.844 342.541C144.573 349.289 169.669 362.501 177.959 365.762C192.974 371.692 205.237 362.56 214.405 358.042C224.77 352.716 234.856 346.866 244.624 340.512C246.901 338.852 248.099 337.168 248.076 335.389C248.016 334.689 248.028 331.819 248.028 331.072Z" fill="#E0E0E0"/>
<path d="M214.358 353.689C224.722 348.364 234.809 342.513 244.577 336.16C249.783 332.377 249.321 328.51 241.837 323.671C231.472 316.947 189.214 292.966 189.214 292.966C189.214 292.966 129.819 327.656 132.12 333.479C134.421 339.303 167.487 357.306 177.912 361.41C192.927 367.316 205.178 358.172 214.358 353.689Z" fill="#F5F5F5"/>
<path d="M168.471 222.162C162.85 219.22 149.578 226.384 140.529 231.341C134.741 234.52 129.855 238.279 126.807 245.312L122.988 243.13C125.989 236.121 130.911 232.361 136.686 229.194C145.973 224.107 159.375 216.872 165.056 220.276L168.471 222.162Z" fill="#F5F5F5"/>
<path d="M176.05 233.82C175.919 233.429 173.986 226.704 170.357 223.502C168.677 221.971 166.486 221.125 164.214 221.13C159.304 221.13 147.444 227.534 140.494 231.317L138.786 232.29L138.145 232.669L137.386 233.156L136.817 233.523C135.599 234.324 134.438 235.207 133.342 236.168C133.164 236.322 132.986 236.477 132.82 236.643C132.121 237.288 131.46 237.973 130.84 238.694L130.507 239.086L130.116 239.572L129.737 240.07L129.369 240.592C128.871 241.302 128.411 242.038 127.993 242.798L127.827 243.094C127.709 243.298 127.602 243.508 127.507 243.723C127.353 244.031 127.199 244.34 127.056 244.648C125.264 248.845 124.205 253.317 123.925 257.872C122.585 273.776 127.886 330.74 133.413 335.27C133.413 335.27 134.599 330.526 143.565 323.209C152.25 316.312 161.498 310.154 171.211 304.802C189.475 294.508 195.085 296.132 195.085 296.132C186.724 291.104 181.838 252.167 176.05 233.82Z" fill="#EBEBEB"/>
<path d="M151.037 455.495C150.815 455.494 150.596 455.448 150.392 455.36C150.189 455.273 150.005 455.145 149.851 454.985L90.2309 391.89L30.7292 454.748C30.5828 454.904 30.4072 455.029 30.2123 455.117C30.0175 455.205 29.8072 455.253 29.5936 455.26C29.3799 455.267 29.167 455.231 28.9671 455.155C28.7672 455.08 28.5842 454.966 28.4284 454.819C28.2727 454.673 28.1473 454.497 28.0594 454.302C27.9715 454.107 27.9229 453.897 27.9163 453.683C27.9097 453.47 27.9452 453.257 28.0209 453.057C28.0965 452.857 28.2108 452.674 28.3572 452.518L89.0449 388.474C89.1963 388.312 89.38 388.182 89.5842 388.094C89.7884 388.007 90.0086 387.962 90.2309 387.964C90.4531 387.962 90.6734 388.007 90.8775 388.094C91.0817 388.182 91.2654 388.312 91.4169 388.474L152.223 452.815C152.436 453.048 152.576 453.337 152.628 453.648C152.68 453.959 152.641 454.279 152.516 454.568C152.391 454.858 152.184 455.105 151.922 455.28C151.66 455.455 151.352 455.55 151.037 455.554V455.495Z" fill="#263238"/>
<path d="M90.2427 503.267C89.8179 503.267 89.4099 503.101 89.1062 502.804C88.8025 502.507 88.6272 502.103 88.6179 501.678V397.191C88.6179 396.978 88.6599 396.767 88.7416 396.57C88.8233 396.372 88.9429 396.193 89.0938 396.042C89.2447 395.892 89.4238 395.772 89.621 395.69C89.8181 395.609 90.0294 395.567 90.2427 395.567C90.4561 395.567 90.6674 395.609 90.8645 395.69C91.0617 395.772 91.2408 395.892 91.3917 396.042C91.5425 396.193 91.6622 396.372 91.7439 396.57C91.8255 396.767 91.8676 396.978 91.8676 397.191V501.678C91.8583 502.103 91.683 502.507 91.3793 502.804C91.0755 503.101 90.6676 503.267 90.2427 503.267Z" fill="#37474F"/>
<path d="M154.892 465.232C154.564 465.233 154.244 465.135 153.973 464.951C153.702 464.767 153.493 464.505 153.374 464.2L121.352 383.102C121.274 382.904 121.236 382.693 121.239 382.48C121.243 382.268 121.289 382.058 121.373 381.863C121.458 381.668 121.581 381.492 121.733 381.344C121.886 381.196 122.067 381.08 122.265 381.002C122.463 380.925 122.674 380.886 122.886 380.89C123.099 380.894 123.309 380.94 123.504 381.024C123.698 381.109 123.875 381.232 124.022 381.384C124.17 381.537 124.286 381.718 124.364 381.916L156.386 463.014C156.465 463.212 156.503 463.423 156.5 463.636C156.497 463.849 156.451 464.059 156.366 464.254C156.281 464.449 156.159 464.626 156.005 464.773C155.852 464.921 155.671 465.036 155.473 465.114C155.288 465.19 155.091 465.23 154.892 465.232Z" fill="#37474F"/>
<path d="M25.5938 465.232C25.3901 465.234 25.1881 465.194 25.0008 465.114C24.6002 464.957 24.2779 464.649 24.1045 464.255C23.9311 463.862 23.9208 463.415 24.0757 463.014L56.0977 381.916C56.2626 381.526 56.5733 381.215 56.9637 381.051C57.3541 380.886 57.7933 380.881 58.1876 381.035C58.582 381.19 58.9003 381.493 59.0749 381.879C59.2494 382.265 59.2663 382.703 59.122 383.102L27.1 464.2C26.9812 464.503 26.7741 464.764 26.5055 464.948C26.237 465.132 25.9193 465.231 25.5938 465.232Z" fill="#37474F"/>
<path d="M152.674 453.052L156.908 464.224C156.925 464.318 156.925 464.415 156.908 464.509V464.71C156.786 465.017 156.559 465.269 156.267 465.422C155.867 465.627 155.424 465.734 154.975 465.734C154.525 465.734 154.082 465.627 153.682 465.422C153.464 465.301 153.289 465.114 153.184 464.888V464.734L149.27 454.238L152.674 453.052Z" fill="#E0E0E0"/>
<path d="M27.7998 453.052L23.5658 464.224C23.5544 464.319 23.5544 464.414 23.5658 464.509C23.5541 464.575 23.5541 464.644 23.5658 464.71C23.6793 465.021 23.9088 465.276 24.2063 465.422C24.6042 465.627 25.0454 465.734 25.4931 465.734C25.9407 465.734 26.3819 465.627 26.7799 465.422C27.0017 465.306 27.1774 465.118 27.278 464.888V464.734L31.2155 454.238L27.7998 453.052Z" fill="#E0E0E0"/>
<path d="M92.1167 493.554V502.793C92.101 502.959 92.0411 503.119 91.9431 503.254C91.845 503.39 91.7125 503.497 91.5592 503.564C91.1485 503.768 90.6958 503.875 90.2368 503.875C89.7779 503.875 89.3252 503.768 88.9145 503.564C88.7627 503.496 88.6319 503.389 88.5359 503.253C88.4399 503.117 88.3822 502.958 88.3689 502.793V493.554C88.945 493.245 89.5888 493.083 90.2428 493.083C90.8967 493.083 91.5405 493.245 92.1167 493.554Z" fill="#E0E0E0"/>
<path d="M151.108 388.035C151.108 385.782 149.116 383.351 144.905 380.635C137.149 375.594 109.112 359.287 98.2482 353.226C98.2438 353.203 98.2324 353.181 98.2155 353.164C98.1985 353.147 98.1769 353.136 98.1533 353.131C89.8513 348.067 84.9057 309.131 79.118 290.783C78.7794 289.638 78.3836 288.509 77.932 287.403L77.8253 287.154L77.4932 286.407C77.4932 286.288 77.3865 286.158 77.3272 286.039C76.4121 283.945 75.099 282.048 73.4608 280.453C72.8899 279.928 72.2518 279.482 71.5632 279.125C70.6263 278.591 68.6456 277.5 68.1594 277.204C62.4784 273.812 49.0648 281.046 39.7903 286.134C34.0144 289.301 29.1163 293.061 26.092 300.07C24.4633 304.095 23.4942 308.356 23.2218 312.689C22.3916 322.367 25.5938 358.136 27.5033 372.143C30.3497 395.555 33.8365 395.602 38.9126 399.516C47.6416 406.264 72.7255 419.476 81.0156 422.738C96.0422 428.668 108.294 419.536 117.473 415.005C127.835 409.686 137.917 403.839 147.681 397.488C149.97 395.827 151.156 394.143 151.132 392.364C151.085 391.653 151.108 388.783 151.108 388.035Z" fill="#E0E0E0"/>
<path d="M117.414 410.641C127.773 405.317 137.855 399.47 147.621 393.123C152.828 389.34 152.365 385.474 144.882 380.635C134.516 373.91 92.2589 349.929 92.2589 349.929C92.2589 349.929 32.8996 384.62 35.2005 390.431C37.5013 396.243 70.567 414.27 80.98 418.373C96.066 424.28 108.282 415.171 117.414 410.641Z" fill="#F5F5F5"/>
<path d="M71.5394 279.125C65.9178 276.172 52.6465 283.347 43.6091 288.305C37.8096 291.471 32.8758 295.243 29.8871 302.276L26.0919 300.058C29.0925 293.049 34.0144 289.289 39.7902 286.122C49.0647 281.035 62.4784 273.8 68.1593 277.192C68.6219 277.524 70.6025 278.591 71.5394 279.125Z" fill="#F5F5F5"/>
<path d="M79.118 290.783C78.9994 290.392 77.0662 283.667 73.437 280.453C71.7465 278.933 69.5553 278.089 67.2817 278.081C62.3717 278.081 50.5117 284.486 43.5617 288.269C42.9806 288.589 42.3757 288.91 41.8539 289.242C41.6285 289.36 41.4151 289.491 41.2016 289.621L40.4425 290.107C40.2496 290.219 40.0635 290.342 39.8851 290.475C38.6655 291.274 37.5007 292.154 36.3983 293.108C36.2204 293.262 36.0543 293.416 35.8764 293.594C35.1787 294.237 34.5212 294.922 33.9077 295.646L33.5756 296.037C33.4451 296.192 33.3028 296.358 33.1842 296.524C33.0656 296.69 32.9352 296.856 32.8047 297.022C32.6742 297.188 32.5556 297.354 32.437 297.532C31.9349 298.246 31.4716 298.986 31.0494 299.75C30.987 299.844 30.9316 299.943 30.8834 300.046L30.5632 300.663C30.409 300.971 30.2666 301.291 30.1125 301.6C28.3173 305.795 27.2582 310.269 26.9814 314.824C25.6413 330.728 30.9427 387.692 36.4694 392.222C36.4694 392.222 37.6554 387.478 46.6335 380.16C55.3218 373.264 64.5779 367.114 74.3028 361.777C92.5554 351.483 98.1651 353.096 98.1651 353.096C89.8038 348.067 84.9057 309.131 79.118 290.783Z" fill="#EBEBEB"/>
<path d="M294.365 554.182C348.266 554.182 391.961 528.955 391.961 497.835C391.961 466.716 348.266 441.489 294.365 441.489C240.464 441.489 196.769 466.716 196.769 497.835C196.769 528.955 240.464 554.182 294.365 554.182Z" fill="#4D4545" fill-opacity="0.23"/>
<path d="M140.885 536.297L111.745 519.468C106.645 516.527 106.645 511.759 111.745 508.794L201.466 456.99C204.325 455.539 207.487 454.783 210.693 454.783C213.899 454.783 217.06 455.539 219.92 456.99L249.06 473.843C254.16 476.784 254.16 481.552 249.06 484.517L159.339 536.321C156.478 537.768 153.315 538.519 150.109 538.515C146.903 538.511 143.743 537.751 140.885 536.297Z" fill="#E0E0E0"/>
<path d="M230.95 362.845L208.641 349.965H208.558L208.392 349.87C197.386 343.632 182.3 344.592 165.542 354.246C131.907 373.59 104.629 420.864 104.629 459.694C104.629 479.002 111.377 492.581 122.277 498.998L122.443 499.093H122.526L144.834 511.972L148.713 501.785C154.628 500.262 160.298 497.91 165.554 494.799C199.189 475.384 226.455 428.158 226.455 389.316C226.504 383.254 225.705 377.214 224.083 371.372L230.95 362.845Z" fill="#BA68C8"/>
<path opacity="0.4" d="M230.95 362.845L208.641 349.965H208.558L208.392 349.87C197.386 343.632 182.3 344.592 165.542 354.246C131.907 373.59 104.629 420.864 104.629 459.694C104.629 479.002 111.377 492.581 122.277 498.998L122.443 499.093H122.526L144.834 511.972L148.713 501.785C154.628 500.262 160.298 497.91 165.554 494.799C199.189 475.384 226.455 428.158 226.455 389.316C226.504 383.254 225.705 377.214 224.083 371.372L230.95 362.845Z" fill="white"/>
<path opacity="0.4" d="M105.163 450.206C104.822 453.357 104.644 456.524 104.629 459.694C104.629 479.002 111.377 492.581 122.277 498.998L122.443 499.093H122.526L144.834 511.972L148.713 501.785C149.97 501.465 151.251 501.097 152.555 500.67L158.307 480.816L105.163 450.206Z" fill="#BA68C8"/>
<path d="M231.168 462.425C254.951 421.231 254.95 376.705 231.165 362.972C207.38 349.24 168.818 371.502 145.035 412.696C121.251 453.89 121.253 498.417 145.038 512.149C168.823 525.882 207.384 503.619 231.168 462.425Z" fill="#BA68C8"/>
<path d="M160.893 506.624C145.783 506.624 136.77 493.945 136.77 472.728C136.77 437.598 162.47 393.088 192.879 375.535C200.861 370.933 208.606 368.502 215.295 368.502C230.404 368.502 239.418 381.169 239.418 402.398C239.418 437.515 213.717 482.026 183.308 499.591C175.338 504.192 167.582 506.624 160.893 506.624Z" fill="#BA68C8"/>
<path opacity="0.15" d="M160.893 506.624C145.783 506.624 136.77 493.945 136.77 472.728C136.77 437.598 162.47 393.088 192.879 375.535C200.861 370.933 208.606 368.502 215.295 368.502C230.404 368.502 239.418 381.169 239.418 402.398C239.418 437.515 213.717 482.026 183.308 499.591C175.338 504.192 167.582 506.624 160.893 506.624Z" fill="black"/>
<path d="M233.808 399.065C233.808 385.545 230.143 375.523 223.585 370.008C220.937 368.986 218.12 368.475 215.283 368.502C208.594 368.502 200.849 370.933 192.867 375.535C162.482 393.088 136.77 437.634 136.77 472.728C136.77 486.236 140.434 496.27 146.993 501.785C149.642 502.799 152.458 503.31 155.295 503.291C161.984 503.291 169.728 500.86 177.698 496.258C208.119 478.693 233.808 434.183 233.808 399.065Z" fill="#FAFAFA"/>
<path d="M203.79 445.165C203.466 445.165 203.144 445.104 202.842 444.987L178.529 435.63L202.806 390.099C202.958 389.772 203.175 389.479 203.444 389.238C203.713 388.998 204.028 388.814 204.371 388.7C204.713 388.585 205.075 388.541 205.434 388.571C205.794 388.601 206.144 388.703 206.462 388.873C206.781 389.042 207.062 389.275 207.288 389.556C207.513 389.838 207.68 390.162 207.776 390.51C207.872 390.858 207.896 391.222 207.847 391.579C207.798 391.937 207.677 392.281 207.491 392.59L186.143 432.831L204.751 440.006C205.33 440.229 205.813 440.648 206.115 441.19C206.418 441.732 206.521 442.363 206.407 442.973C206.292 443.583 205.968 444.134 205.49 444.53C205.013 444.926 204.411 445.142 203.79 445.141V445.165Z" fill="#37474F"/>
<path d="M182.49 444.252C185.017 442.604 187.121 440.384 188.629 437.771C190.137 435.158 191.008 432.226 191.171 429.213C191.171 423.675 187.281 421.433 182.49 424.197C179.962 425.846 177.858 428.069 176.349 430.684C174.841 433.299 173.97 436.232 173.808 439.247C173.808 444.75 177.698 447.027 182.49 444.252Z" fill="#455A64"/>
<path d="M182.49 487.446C181.778 487.861 181.197 487.446 181.197 486.604V476.381C181.209 475.911 181.333 475.451 181.558 475.039C181.782 474.626 182.102 474.273 182.49 474.009C183.201 473.605 183.783 474.009 183.783 474.863V485.074C183.771 485.544 183.648 486.004 183.423 486.416C183.198 486.829 182.878 487.182 182.49 487.446Z" fill="#BA68C8"/>
<path d="M182.383 398.045C181.671 398.46 181.102 398.045 181.102 397.203V386.968C181.112 386.499 181.233 386.04 181.456 385.627C181.679 385.215 181.997 384.861 182.383 384.596C183.095 384.193 183.676 384.596 183.676 385.45V395.673C183.664 396.143 183.54 396.603 183.315 397.015C183.091 397.427 182.771 397.781 182.383 398.045Z" fill="#BA68C8"/>
<path d="M139.142 461.508C139.176 461.046 139.32 460.598 139.561 460.203C139.802 459.807 140.134 459.474 140.529 459.231L149.436 454.119C150.207 453.681 150.812 453.989 150.812 454.807C150.774 455.269 150.629 455.715 150.388 456.111C150.147 456.506 149.817 456.84 149.424 457.084L140.577 462.196C139.746 462.647 139.13 462.338 139.142 461.508Z" fill="#BA68C8"/>
<path d="M216.137 416.95C216.174 416.489 216.319 416.042 216.56 415.647C216.801 415.251 217.131 414.918 217.524 414.673L226.384 409.55C227.143 409.111 227.759 409.419 227.748 410.249C227.713 410.712 227.569 411.159 227.328 411.555C227.087 411.951 226.755 412.284 226.36 412.526L217.512 417.638C216.753 418.077 216.137 417.768 216.137 416.95Z" fill="#BA68C8"/>
<path d="M244.221 476.642C245.407 460.559 243.462 442.888 244.79 417.792C244.909 411.364 245.146 404.473 245.573 398.342C247.032 377.753 250.21 370.708 250.495 366.735C250.495 366.735 252.061 327.253 253.401 282.185C254.041 260.979 260.185 254.563 265.095 243.308H323.446C329.969 271.072 331.819 331.641 331.629 360.259C331.523 374.847 325.64 452.91 325.521 454.701C325.106 461.069 325.664 463.584 328.154 466.264C333.385 471.874 340.963 477.223 347.51 482.109C346.561 484.611 338.686 484.481 334.784 482.619C329.669 479.956 324.796 476.853 320.22 473.344C314.836 469.359 307.957 466.157 307.862 460.097C307.838 459.732 307.778 459.371 307.684 459.018C307.589 455.46 299.382 403.276 298.647 391.143C298.054 380.718 299.323 363.046 299.323 363.046L292.598 318.915C292.598 318.915 287.439 352.42 283.252 370.234C279.837 384.727 274.203 409.467 270.372 427.304C266.684 447.869 261.383 467.841 260.446 478.136C260.173 480.591 257.386 504.702 256.235 510.229C255.085 515.756 243.13 515.91 242.3 506.422C241.79 500.077 244.008 479.666 244.221 476.642Z" fill="#9E6767"/>
<path d="M358.658 488.513C358.99 488.513 359.536 492.178 357.745 493.756C355.67 495.582 349.573 498.606 341.461 497.646C333.349 496.685 328.937 494.23 325.664 491.55C322.39 488.869 317.812 485.086 314.136 484.327C310.72 483.603 307.02 482.109 305.905 481.065C304.79 480.022 304.909 475.349 304.909 475.349L358.658 488.513Z" fill="#263238"/>
<path d="M307.542 457.298C307.542 457.298 306.925 457.298 306.735 458.413C306.498 459.705 306.273 463.453 305.751 465.529C304.958 469.265 304.73 473.099 305.075 476.902C305.549 479.274 311.123 480.899 314.681 482.216C318.872 483.991 322.771 486.391 326.245 489.332C330.087 492.439 338.105 495.499 343.406 495.523C351.471 495.523 356.666 493.305 358.255 490.399C360.212 486.841 358.623 484.73 349.313 480.532C347.545 479.737 341.354 476.167 339.243 474.863C337.001 473.498 334.875 471.951 332.886 470.237C331.882 469.371 330.928 468.448 330.028 467.474C329.093 466.606 328.293 465.603 327.656 464.497C327.549 464.26 327.478 463.975 327.383 463.714C327.109 463.015 326.899 462.293 326.755 461.556C326.601 460.785 326.494 459.67 325.747 459.184C324.697 458.763 323.552 458.64 322.438 458.828C321.241 458.927 320.052 459.109 318.88 459.373C317.516 459.694 315.95 459.836 315.156 461.117C314.623 462.157 314.369 463.318 314.42 464.485C314.42 465.031 314.42 465.576 314.42 466.11C314.42 466.347 314.527 466.762 314.207 466.667C313.887 466.572 313.543 465.778 313.424 465.481C313.163 464.888 312.985 464.236 312.701 463.643C312.38 462.952 311.982 462.3 311.515 461.698C311.082 461.146 310.584 460.649 310.032 460.215C309.477 459.914 308.942 459.578 308.431 459.207C307.959 458.669 307.65 458.006 307.542 457.298Z" fill="#37474F"/>
<path d="M350.819 481.291C339.149 482.216 335.555 489.462 335.104 493.922C337.77 494.899 340.57 495.459 343.406 495.582C351.471 495.582 356.998 493.364 358.587 490.458C360.425 487.055 359.121 484.339 350.819 481.291Z" fill="#FAFAFA"/>
<path d="M333.325 481.587C333.192 481.595 333.061 481.553 332.958 481.469C332.899 481.421 332.85 481.363 332.814 481.297C332.778 481.23 332.755 481.158 332.748 481.083C332.74 481.008 332.747 480.932 332.769 480.86C332.791 480.787 332.827 480.72 332.875 480.662C334.218 479.243 335.85 478.127 337.661 477.391C339.471 476.655 341.418 476.314 343.371 476.392C343.449 476.399 343.524 476.422 343.594 476.458C343.663 476.494 343.724 476.544 343.774 476.604C343.825 476.664 343.862 476.733 343.886 476.808C343.909 476.882 343.917 476.961 343.91 477.039C343.903 477.117 343.881 477.192 343.845 477.262C343.809 477.331 343.759 477.392 343.699 477.443C343.639 477.493 343.57 477.53 343.495 477.554C343.42 477.577 343.342 477.585 343.264 477.578C341.502 477.525 339.749 477.839 338.115 478.501C336.482 479.162 335.004 480.157 333.776 481.421C333.718 481.481 333.647 481.526 333.57 481.555C333.492 481.584 333.408 481.595 333.325 481.587Z" fill="#F0F0F0"/>
<path d="M328.261 478.717C328.132 478.72 328.007 478.678 327.905 478.598C327.787 478.503 327.711 478.365 327.694 478.215C327.676 478.064 327.718 477.912 327.81 477.792C329.155 476.371 330.789 475.254 332.601 474.517C334.414 473.781 336.363 473.442 338.318 473.522C338.398 473.521 338.478 473.537 338.551 473.568C338.625 473.6 338.691 473.647 338.745 473.705C338.799 473.764 338.841 473.834 338.866 473.909C338.892 473.985 338.901 474.066 338.894 474.145C338.886 474.225 338.862 474.302 338.822 474.372C338.783 474.441 338.729 474.502 338.665 474.549C338.601 474.597 338.527 474.63 338.449 474.648C338.371 474.665 338.29 474.665 338.212 474.649C336.449 474.599 334.696 474.916 333.063 475.58C331.429 476.243 329.952 477.239 328.724 478.504C328.67 478.574 328.599 478.63 328.519 478.668C328.438 478.705 328.35 478.722 328.261 478.717Z" fill="#F0F0F0"/>
<path d="M323.576 475.42C323.444 475.423 323.315 475.381 323.209 475.301C323.091 475.206 323.015 475.068 322.997 474.917C322.979 474.767 323.021 474.615 323.114 474.495C324.461 473.077 326.095 471.962 327.907 471.226C329.719 470.489 331.667 470.148 333.622 470.225C333.697 470.231 333.77 470.252 333.836 470.286C333.903 470.321 333.963 470.368 334.011 470.425C334.06 470.482 334.096 470.549 334.119 470.62C334.142 470.692 334.15 470.767 334.144 470.842C334.138 470.918 334.117 470.991 334.081 471.058C334.046 471.125 333.998 471.184 333.939 471.232C333.88 471.28 333.812 471.315 333.739 471.336C333.666 471.356 333.59 471.362 333.515 471.352C331.753 471.304 330 471.621 328.367 472.285C326.734 472.948 325.256 473.943 324.027 475.206C323.975 475.276 323.907 475.332 323.828 475.369C323.75 475.406 323.663 475.424 323.576 475.42Z" fill="#F0F0F0"/>
<path d="M319.034 472.123C318.905 472.126 318.78 472.084 318.678 472.004C318.559 471.913 318.481 471.778 318.461 471.629C318.441 471.48 318.481 471.329 318.571 471.21C320.777 468.363 325.806 466.466 330.052 466.869C330.13 466.876 330.206 466.898 330.275 466.934C330.344 466.971 330.406 467.02 330.456 467.08C330.506 467.14 330.544 467.21 330.567 467.284C330.59 467.359 330.599 467.437 330.592 467.515C330.585 467.593 330.562 467.669 330.526 467.738C330.49 467.807 330.44 467.869 330.38 467.919C330.32 467.969 330.251 468.007 330.176 468.03C330.102 468.053 330.023 468.062 329.945 468.055C326.126 467.687 321.43 469.443 319.473 471.969C319.416 472.025 319.347 472.068 319.271 472.095C319.195 472.122 319.114 472.131 319.034 472.123Z" fill="#F0F0F0"/>
<path d="M260.042 514.534C259.722 520.037 258.856 523.69 256.911 526.916C254.966 530.142 251.278 531.15 247.542 530.213C243.806 529.276 239.038 526.738 237.959 521.994C236.88 517.25 236.275 513.989 237.117 508.877L260.042 514.534Z" fill="#263238"/>
<path d="M244.316 474.673C242.786 474.791 242.323 482.18 241.446 489.581C240.497 497.515 238.125 500.8 237.271 507.3C236.299 514.736 237.532 518.045 240.141 522.54C242.75 527.035 252.001 531.447 256.496 525.007C260.197 519.765 260.351 513.941 260.054 506.529C259.856 500.254 260.022 493.974 260.552 487.719C260.849 482.156 262.082 476.547 260.742 475.93C260.635 476.748 260.54 477.78 260.434 478.587C260.382 479.591 260.215 480.586 259.936 481.552C259.781 481.967 259.437 482.405 259.295 481.729C259.224 481.27 259.224 480.802 259.295 480.342C259.52 478.29 258.489 478.124 257.931 477.97C255.579 477.505 253.204 477.168 250.815 476.962C249.629 476.879 245.585 476.701 245.051 477.377C244.708 478.04 244.533 478.777 244.541 479.524C244.411 480.638 244.15 481.457 244.114 481.101C244.043 480.306 244.197 478.219 244.221 477.721C244.245 477.223 244.316 476.535 244.328 476.096C244.34 475.657 244.316 475.147 244.316 474.673Z" fill="#37474F"/>
<path d="M236.88 511.605C236.602 515.58 237.612 519.54 239.762 522.896C242.359 527.39 252.321 531.814 256.864 525.374C259.129 522.172 259.734 518.389 260.042 514.522C257.362 509.565 241.173 507.383 236.88 511.605Z" fill="#FAFAFA"/>
<path d="M256.686 506.422C256.623 506.433 256.559 506.433 256.496 506.422C256.437 506.422 249.321 503.445 242.395 505.046C242.32 505.072 242.24 505.081 242.161 505.074C242.082 505.067 242.005 505.044 241.936 505.005C241.867 504.967 241.806 504.914 241.758 504.851C241.71 504.788 241.676 504.715 241.658 504.638C241.639 504.561 241.637 504.481 241.652 504.403C241.666 504.325 241.697 504.251 241.742 504.185C241.787 504.12 241.845 504.065 241.912 504.023C241.98 503.981 242.055 503.954 242.134 503.943C249.463 502.247 256.722 505.26 256.994 505.39C257.129 505.457 257.232 505.574 257.281 505.716C257.33 505.858 257.321 506.014 257.255 506.149C257.199 506.247 257.115 506.325 257.013 506.374C256.911 506.423 256.797 506.439 256.686 506.422Z" fill="#F0F0F0"/>
<path d="M242.739 499.496C242.628 499.485 242.523 499.442 242.437 499.373C242.351 499.303 242.286 499.21 242.252 499.104C242.207 498.961 242.218 498.806 242.284 498.671C242.351 498.536 242.467 498.432 242.608 498.381C249.511 496.009 257.16 499.567 257.445 499.697C257.559 499.779 257.64 499.899 257.672 500.035C257.705 500.172 257.687 500.315 257.622 500.44C257.557 500.564 257.449 500.66 257.319 500.711C257.188 500.762 257.043 500.765 256.911 500.717C256.852 500.717 249.392 497.278 242.976 499.46C242.901 499.49 242.819 499.502 242.739 499.496Z" fill="#F0F0F0"/>
<path d="M242.988 494.265C242.881 494.255 242.778 494.215 242.692 494.151C242.607 494.086 242.54 493.998 242.501 493.898C242.475 493.827 242.463 493.752 242.466 493.676C242.469 493.601 242.487 493.527 242.519 493.458C242.551 493.39 242.597 493.328 242.653 493.278C242.709 493.227 242.774 493.188 242.845 493.163C250.424 490.447 257.694 494.277 257.955 494.443C258.084 494.522 258.176 494.649 258.212 494.795C258.248 494.942 258.223 495.097 258.145 495.226C258.066 495.355 257.94 495.448 257.793 495.483C257.646 495.519 257.491 495.495 257.362 495.416C257.303 495.416 250.246 491.716 243.237 494.23C243.157 494.259 243.072 494.271 242.988 494.265Z" fill="#F0F0F0"/>
<path d="M243.355 489.13C243.251 489.115 243.153 489.074 243.069 489.009C242.986 488.945 242.921 488.86 242.881 488.762C242.854 488.692 242.842 488.618 242.844 488.543C242.846 488.468 242.863 488.394 242.894 488.326C242.925 488.257 242.969 488.196 243.024 488.145C243.079 488.093 243.143 488.053 243.213 488.027C250.329 485.37 258.133 489.296 258.429 489.462C258.56 489.539 258.655 489.664 258.695 489.81C258.735 489.956 258.716 490.112 258.643 490.245C258.605 490.31 258.555 490.367 258.495 490.412C258.435 490.457 258.366 490.49 258.293 490.509C258.221 490.528 258.145 490.532 258.071 490.521C257.996 490.51 257.925 490.485 257.86 490.447C257.789 490.447 250.21 486.616 243.628 489.095C243.541 489.125 243.448 489.137 243.355 489.13Z" fill="#EBEBEB"/>
<path d="M259.141 243.308C252.725 259.105 250.519 268.083 249.819 305.573C249.119 343.062 249.19 359.299 249.036 363.817C248.882 368.336 246.261 376.413 243.948 398.686C241.636 420.959 243.759 447.015 243.759 447.015C243.759 447.015 245.965 451.06 254.433 451.759C262.284 452.471 266.174 449.518 266.174 449.518C266.174 449.518 276.943 406.158 279.932 392.756C282.92 379.354 292.574 327.822 292.574 327.822L297.71 363.58C297.71 363.58 295.338 375.867 297.71 395.401C300.082 414.934 304.328 434.918 304.328 434.918C308.203 436.272 312.284 436.942 316.389 436.899C320.106 436.956 323.769 435.996 326.98 434.123C326.98 434.123 333.646 376.009 333.646 353.902C333.646 331.795 333.373 276.006 326.399 243.249L259.141 243.308Z" fill="#455A64"/>
<path d="M282.078 370.174C282.078 370.174 278.698 365.288 270.396 364.244C262.094 363.201 257.789 367.743 257.789 367.743C257.789 367.743 273.195 366.166 282.078 370.174ZM256.852 371.064C267.526 373.187 272.436 372.748 277.322 371.775C277.322 371.775 261.928 369.83 256.852 371.064Z" fill="#9E6767"/>
<path d="M333.586 359.738L333.657 357.366C326.541 356.417 315.12 358.729 312.06 360.485C319.191 359.498 326.404 359.248 333.586 359.738ZM317.136 363.236C321.88 364.517 333.337 365.098 333.337 365.098L333.456 362.845C333.456 362.845 325.296 362.596 317.136 363.236Z" fill="#9E6767"/>
<path d="M245.846 449.079C246.219 449.361 246.616 449.611 247.032 449.826C244.862 414.839 249.214 394.748 252.108 381.358C252.393 380.066 252.654 378.844 252.903 377.682C255.097 367.209 256.081 346.193 256.046 328.985C256.046 323.802 256.046 318.453 256.046 312.76C256.046 306.107 256.295 299.216 256.84 292.408C269.044 290.95 271.689 278.9 275.022 263.695C275.472 261.608 275.951 259.461 276.457 257.255L275.377 257.006C274.867 259.212 274.393 261.371 273.93 263.458C270.598 278.698 268.143 289.764 256.935 291.246C258.263 275.828 261.454 260.778 269.044 249.938L268.143 249.297C256.84 265.427 255.097 290.428 254.931 312.748C254.931 318.441 254.931 323.802 254.931 328.985C254.931 346.134 253.982 367.103 251.812 377.456L251.029 381.121C248.111 394.464 243.782 414.436 245.846 449.079ZM299.631 285.316L292.622 327.882L297.757 363.639L297.081 328.902L301.825 302.513C302.003 305.134 302.193 307.826 302.371 310.566C303.924 333.195 305.668 358.836 304.494 364.232C301.244 379.022 302.193 388.356 303.924 405.304C304.102 407.023 304.292 408.862 304.482 410.712C305.431 420.283 306.486 429.688 307.198 435.843L308.384 436.104C307.672 429.961 306.593 420.378 305.62 410.605C305.431 408.707 305.253 406.917 305.075 405.197C303.355 388.368 302.406 379.105 305.608 364.47C306.794 358.919 305.146 334.298 303.521 310.495C303.225 306.166 302.94 301.991 302.679 298.006L304.031 290.511C309.368 289.23 321.121 283.027 322.687 275.662C314.432 284.26 299.631 285.316 299.631 285.316Z" fill="#37474F"/>
<path d="M360.212 224.7C359.323 224.213 357.65 225.684 355.468 227.759C354.922 228.272 354.498 228.9 354.227 229.598C353.956 230.296 353.845 231.045 353.902 231.792C355.417 231.511 356.79 230.72 357.793 229.55C358.959 228.14 359.787 226.48 360.212 224.7Z" fill="#263238"/>
<path d="M365.288 241.695C364.434 241.422 364.102 241.054 365.288 239.952C366.474 238.849 370.388 236.014 370.388 236.014L371.372 237.674C371.372 237.674 366.771 242.027 365.288 241.695Z" fill="black"/>
<path d="M390.467 214.796C389.909 212.353 387.229 210.551 382.39 207.858L382.26 207.787L381.584 207.408C373.554 203.304 334.049 185.431 327.656 182.976C322.762 180.91 317.591 179.572 312.309 179.003L321.169 210.183C321.169 210.183 350.522 219.374 362.679 223.11C359.346 227.06 356.085 230.879 353.084 232.254L364.944 242.3C367.577 238.232 383.588 230.072 387.134 224.51C389.66 220.43 391.001 217.18 390.467 214.796Z" fill="#9E6767"/>
<path d="M378.642 210.562C370.554 209.697 363.853 216.635 360.698 220.252C360.378 220.62 359.714 221.438 359.18 222.055L362.596 223.11C362.774 222.909 364.126 221.118 364.968 219.991C368.228 215.29 373.09 211.939 378.642 210.562Z" fill="#874C4C"/>
<path d="M363.924 233.429C362.584 232.243 359.311 229.242 357.223 230.12C353.95 231.507 352.408 232.812 347.486 235.113C343.928 236.785 339.599 239.015 338.662 240.118C336.29 242.94 337.097 250.151 338.046 253.164C338.155 253.548 338.348 253.905 338.609 254.208C338.87 254.512 339.194 254.754 339.558 254.92C339.923 255.086 340.319 255.171 340.719 255.168C341.119 255.166 341.514 255.077 341.876 254.907C342.161 255.536 342.956 256.888 345.434 256.378C345.624 257.315 347.059 258.441 349.277 257.991C349.562 259.022 351.554 259.39 352.894 258.773C354.756 257.943 356.69 255.286 357.864 254.278C359.038 253.27 359.595 252.891 359.619 252.262C359.619 251.408 358.706 250.542 357.14 250.685C358.987 250.17 360.638 249.117 361.884 247.661C362.842 246.329 363.639 244.887 364.256 243.367C364.736 242.1 365.466 240.942 366.403 239.963C368.134 238.018 365.549 235.101 364.149 233.737L363.924 233.429Z" fill="#9E6767"/>
<path d="M357.176 250.72C356.637 251.002 356.131 251.344 355.67 251.74C355.45 251.942 355.252 252.164 355.077 252.405C354.887 252.642 354.756 252.903 354.543 253.164L354.436 253.294L354.294 253.223C353.374 252.863 352.382 252.728 351.4 252.831C352.385 252.434 353.486 252.434 354.472 252.831H354.223C354.539 252.3 354.94 251.824 355.409 251.42C355.945 251.07 356.546 250.832 357.176 250.72Z" fill="#874C4C"/>
<path d="M353.736 255.737C353.855 255.251 354.021 254.836 354.116 254.397C354.231 253.948 354.318 253.493 354.377 253.033C354.606 253.484 354.656 254.005 354.519 254.492C354.402 254.981 354.127 255.419 353.736 255.737Z" fill="#874C4C"/>
<path d="M349.313 258.026C348.735 256.846 348.393 255.565 348.305 254.255C348.17 252.946 348.295 251.625 348.672 250.365C348.591 251.649 348.611 252.938 348.732 254.219C348.82 255.502 349.014 256.775 349.313 258.026Z" fill="#874C4C"/>
<path d="M345.47 256.413C344.928 254.938 344.573 253.399 344.414 251.835C344.221 250.254 344.289 248.651 344.616 247.091C344.592 248.648 344.663 250.204 344.83 251.752C344.972 253.341 345.245 254.871 345.47 256.413Z" fill="#874C4C"/>
<path d="M341.876 254.99C340.464 252.03 340.177 248.658 341.07 245.502C340.929 247.08 340.929 248.668 341.07 250.246C341.202 251.848 341.472 253.435 341.876 254.99Z" fill="#874C4C"/>
<path d="M341.283 242.988C341.255 242.582 341.324 242.175 341.485 241.802C341.653 241.435 341.9 241.111 342.209 240.853C342.845 240.404 343.582 240.119 344.355 240.023C344.023 240.224 343.691 240.402 343.371 240.58C343.047 240.746 342.741 240.944 342.458 241.173C341.887 241.642 341.477 242.276 341.283 242.988Z" fill="#874C4C"/>
<path d="M344.96 244.423C344.92 244.018 344.986 243.609 345.15 243.237C345.317 242.867 345.569 242.542 345.885 242.288C346.513 241.831 347.248 241.545 348.02 241.458L347.035 242.003C346.716 242.177 346.411 242.376 346.122 242.596C345.555 243.07 345.148 243.708 344.96 244.423Z" fill="#874C4C"/>
<path d="M349.407 246.439C349.368 246.034 349.433 245.625 349.597 245.253C349.765 244.884 350.017 244.559 350.333 244.304C350.963 243.852 351.697 243.566 352.467 243.474C352.135 243.676 351.803 243.853 351.483 244.031C351.159 244.197 350.853 244.396 350.57 244.624C349.997 245.088 349.589 245.725 349.407 246.439Z" fill="#874C4C"/>
<path d="M367.98 225.731L362.999 224.059C362.432 223.901 361.836 223.879 361.259 223.995C360.682 224.11 360.141 224.36 359.678 224.723L355.729 228.198C355.557 228.322 355.421 228.489 355.335 228.683C355.25 228.877 355.218 229.091 355.243 229.301C355.243 229.55 355.48 230.487 355.539 230.76C355.599 230.962 355.713 231.145 355.867 231.288C356.021 231.432 356.211 231.532 356.417 231.578L361.398 233.262C361.965 233.419 362.561 233.441 363.137 233.325C363.714 233.21 364.256 232.961 364.719 232.598L368.656 229.111C368.825 228.995 368.961 228.836 369.051 228.651C369.14 228.466 369.18 228.261 369.166 228.056C369.166 227.783 368.917 226.87 368.858 226.562C368.799 226.357 368.687 226.172 368.533 226.026C368.378 225.88 368.187 225.778 367.98 225.731Z" fill="#37474F"/>
<path d="M355.729 228.198L359.678 224.723C360.141 224.36 360.682 224.11 361.259 223.995C361.836 223.879 362.432 223.901 362.999 224.059L367.98 225.731C368.196 225.757 368.399 225.849 368.559 225.996C368.719 226.143 368.828 226.337 368.872 226.55C368.915 226.763 368.89 226.985 368.8 227.183C368.711 227.381 368.561 227.545 368.372 227.653L364.422 231.128C363.96 231.491 363.418 231.741 362.841 231.856C362.264 231.972 361.668 231.95 361.101 231.792L356.12 230.12C355.904 230.094 355.702 230.002 355.542 229.855C355.382 229.708 355.272 229.514 355.229 229.301C355.185 229.088 355.21 228.866 355.3 228.668C355.39 228.47 355.54 228.306 355.729 228.198Z" fill="#455A64"/>
<path d="M362.75 231.377C362.26 231.504 361.746 231.504 361.256 231.377L356.274 229.704C355.954 229.598 355.753 229.432 355.717 229.242C355.681 229.052 355.8 228.839 356.061 228.613L359.998 225.138C360.391 224.824 360.856 224.612 361.35 224.522C361.841 224.395 362.355 224.395 362.845 224.522L367.826 226.194C368.146 226.301 368.348 226.467 368.383 226.656C368.419 226.846 368.3 227.06 368.04 227.285L364.102 230.76C363.709 231.074 363.245 231.286 362.75 231.377Z" fill="#263238"/>
<path d="M360.544 232.456H360.461L356.903 231.27C356.882 231.263 356.862 231.252 356.845 231.238C356.828 231.224 356.814 231.206 356.804 231.186C356.794 231.166 356.789 231.144 356.787 231.122C356.786 231.1 356.789 231.078 356.796 231.057C356.81 231.013 356.84 230.977 356.879 230.955C356.919 230.933 356.966 230.927 357.01 230.938L360.568 232.124C360.59 232.129 360.611 232.139 360.629 232.153C360.647 232.167 360.662 232.185 360.672 232.205C360.682 232.226 360.687 232.248 360.688 232.271C360.688 232.294 360.684 232.317 360.674 232.337C360.664 232.366 360.647 232.392 360.624 232.413C360.601 232.433 360.574 232.448 360.544 232.456Z" fill="#455A64"/>
<path d="M364.743 231.685C365.49 231.91 367.115 232.93 367.814 235.907C368.514 238.884 366.949 241.351 365.253 241.695C365.857 242.098 367.292 241.505 369.06 240.177L370.53 239.074C371.116 238.639 371.584 238.066 371.895 237.406C372.205 236.746 372.348 236.019 372.309 235.291C372.285 234.842 372.218 234.397 372.108 233.962C371.93 232.83 371.514 231.748 370.886 230.789C370.258 229.83 369.433 229.016 368.467 228.4L364.743 231.685Z" fill="#263238"/>
<path d="M250.246 270.491C252.974 258.062 257.125 239.738 257.22 236.987C257.623 225.862 254.753 217.572 253.721 210.657C251.468 195.583 257.113 182.929 260.624 179.952C260.624 179.952 264.276 179.122 268.629 178.078C271.106 177.476 273.617 177.025 276.148 176.726C282.827 175.79 289.59 175.607 296.31 176.18C297.947 176.346 305.692 177.675 305.692 177.675C308.064 178.22 312.321 179.003 312.333 179.003C316.485 182.832 319.954 187.34 322.592 192.334C326.411 199.165 328.297 204.881 327.787 219.517C327.644 223.917 327.467 231.78 327.644 238.054C328.012 251.491 329.032 257.03 330.74 269.222C315.334 278.71 276.469 283.086 250.246 270.491Z" fill="#263238"/>
<path d="M277.334 168.412C278.496 168.125 279.628 167.728 280.714 167.226C282.282 166.417 284.026 166.01 285.79 166.04C287.961 166.265 289.74 167.724 291.803 168.282C292.968 168.567 294.178 168.616 295.361 168.424C296.097 168.317 296.796 168.08 297.52 167.914C298.703 167.628 299.929 167.559 301.137 167.712C302.367 167.991 303.643 167.991 304.873 167.712C306.794 167.048 307.897 164.984 309.748 164.154C311.811 163.205 314.254 164.024 316.484 163.609C317.484 163.392 318.426 162.961 319.244 162.347C320.063 161.733 320.74 160.95 321.228 160.051C322.184 158.23 322.556 156.16 322.295 154.121C321.958 152.746 321.958 151.309 322.295 149.934C322.731 149.077 323.318 148.306 324.027 147.657C325.32 146.234 326.399 144.277 325.794 142.45C325.272 140.849 323.553 139.735 323.422 138.05C323.42 137.663 323.504 137.28 323.668 136.93C323.832 136.579 324.072 136.269 324.371 136.023C324.669 135.777 325.019 135.6 325.395 135.505C325.77 135.411 326.162 135.401 326.541 135.477C326.909 135.596 327.246 135.795 327.529 136.058C327.811 136.322 328.034 136.643 328.179 137.001C328.325 137.359 328.391 137.745 328.372 138.131C328.353 138.517 328.251 138.894 328.071 139.236C328.89 138.717 329.583 138.022 330.1 137.201C330.617 136.381 330.945 135.455 331.06 134.492C330.936 132.829 330.16 131.282 328.902 130.187C327.716 129.001 326.387 128.041 325.344 126.76C324.788 126.059 324.385 125.252 324.158 124.388C324.049 123.966 324.005 123.53 324.027 123.095C324.027 122.324 324.383 121.565 324.501 120.794C324.709 119.21 324.346 117.603 323.476 116.262C322.607 114.921 321.289 113.934 319.757 113.476C318.097 113.038 316.105 113.156 315.013 111.852C314.195 110.903 314.171 109.48 313.709 108.365C312.523 105.412 308.479 104.522 305.502 105.684C304.031 106.254 302.549 107.226 301.019 106.87C299.985 106.49 299.055 105.873 298.303 105.068C296.911 103.906 295.297 103.043 293.559 102.53C292.693 102.271 291.802 102.1 290.902 102.02C290.451 102.02 290.001 102.02 289.55 102.02C289.207 102.057 288.863 102.077 288.518 102.079C288.228 102.03 287.935 101.998 287.641 101.984C287.268 101.988 286.895 102.015 286.526 102.067C285.06 102.262 283.648 102.75 282.375 103.502C281.34 104.106 280.417 104.885 279.647 105.803C279.131 106.511 278.556 107.174 277.927 107.784C276.231 109.219 273.812 109.195 271.606 109.468C269.052 109.728 266.614 110.67 264.549 112.196C263.535 112.973 262.695 113.954 262.082 115.075C261.469 116.196 261.098 117.433 260.991 118.707C261.096 119.846 260.954 120.995 260.576 122.075C260.103 122.825 259.423 123.422 258.619 123.795C256.758 124.64 254.945 125.586 253.187 126.629C252.313 127.164 251.589 127.913 251.085 128.805C250.58 129.698 250.312 130.704 250.305 131.729C250.448 133.449 251.634 134.872 252.677 136.283C253.721 137.695 254.587 139.438 254.065 141.087C253.585 142.071 253.013 143.008 252.357 143.886C251.756 145.098 251.657 146.499 252.081 147.784C252.505 149.069 253.418 150.135 254.622 150.752C256.152 151.464 258.323 151.654 258.761 153.279C258.824 154.217 258.69 155.158 258.37 156.042C257.896 158.829 260.576 161.379 263.387 161.759C264.964 161.984 266.743 161.759 268.012 162.719C269.092 163.549 269.435 165.02 270.195 166.159C270.96 167.283 272.12 168.079 273.444 168.388C274.085 168.542 274.761 168.448 275.389 168.614C276.044 168.686 276.708 168.617 277.334 168.412Z" fill="#263238"/>
<path d="M276.884 172.124C276.884 169.657 276.575 157.264 276.575 157.264C276.468 158.189 271.962 160.703 267.953 155.923C263.944 151.144 263.683 146.056 266.103 142.877C268.771 139.319 275.745 139.402 276.409 145.439C279.872 145.309 281.545 143.814 280.169 138.11C280.477 134.789 283.727 133.366 284.652 128.041C284.96 126.013 285.951 124.151 287.46 122.762C288.97 121.374 290.908 120.541 292.954 120.403C294.593 120.273 296.241 120.51 297.778 121.097C299.314 121.684 300.701 122.605 301.837 123.795C302.252 122.985 302.841 122.277 303.563 121.723C304.286 121.169 305.122 120.783 306.012 120.592C308.264 120.292 310.546 120.861 312.394 122.183C314.242 123.505 315.518 125.48 315.962 127.708C317.175 133.428 317.685 139.275 317.48 145.119C316.994 158.272 313.46 164.617 309.25 166.823C306.415 168.293 303.865 168.637 298.943 168.222L299.157 172.35C299.252 174.425 299.062 175.908 301.078 176.631C302.418 177.082 305.62 177.698 305.62 177.698C305.62 177.698 310.305 185.787 297.401 186.51C276.836 187.696 268.593 178.102 268.593 178.102L273.148 176.702C276.504 175.635 276.86 174.603 276.884 172.124Z" fill="#9E6767"/>
<path d="M301.801 153.86C301.466 153.425 301.001 153.11 300.473 152.958C300.002 152.819 299.517 152.731 299.026 152.697C298.55 152.66 298.071 152.688 297.603 152.781C297.341 152.832 297.083 152.903 296.832 152.994C296.621 153.091 296.425 153.219 296.251 153.374C296.144 153.457 295.99 153.919 296.251 153.919C296.499 153.943 296.75 153.943 296.998 153.919L297.65 153.86C298.113 153.836 298.576 153.836 299.038 153.86C299.489 153.886 299.935 153.965 300.366 154.097C300.556 154.156 300.746 154.18 300.936 154.227C301.125 154.275 301.149 154.287 301.256 154.299C301.394 154.31 301.533 154.31 301.671 154.299C301.837 154.275 301.884 153.966 301.801 153.86Z" fill="#874C4C"/>
<path opacity="0.2" d="M301.801 153.86C301.466 153.425 301.001 153.11 300.473 152.958C300.002 152.819 299.517 152.731 299.026 152.697C298.55 152.66 298.071 152.688 297.603 152.781C297.341 152.832 297.083 152.903 296.832 152.994C296.621 153.091 296.425 153.219 296.251 153.374C296.144 153.457 295.99 153.919 296.251 153.919C296.499 153.943 296.75 153.943 296.998 153.919L297.65 153.86C298.113 153.836 298.576 153.836 299.038 153.86C299.489 153.886 299.935 153.965 300.366 154.097C300.556 154.156 300.746 154.18 300.936 154.227C301.125 154.275 301.149 154.287 301.256 154.299C301.394 154.31 301.533 154.31 301.671 154.299C301.837 154.275 301.884 153.966 301.801 153.86Z" fill="black"/>
<path d="M313.661 133.461L308.49 131.397C308.607 131.049 308.794 130.73 309.04 130.457C309.285 130.185 309.584 129.966 309.917 129.814C310.251 129.661 310.612 129.579 310.979 129.572C311.345 129.565 311.709 129.633 312.048 129.772C312.738 130.064 313.289 130.609 313.589 131.295C313.889 131.981 313.915 132.756 313.661 133.461Z" fill="#263238"/>
<path d="M296.002 131.765L290.487 130.579C290.392 130.933 290.37 131.303 290.423 131.667C290.476 132.03 290.602 132.379 290.794 132.692C290.986 133.005 291.24 133.275 291.54 133.487C291.84 133.699 292.18 133.847 292.539 133.923C293.283 134.078 294.058 133.94 294.703 133.538C295.348 133.136 295.813 132.501 296.002 131.765Z" fill="#263238"/>
<path d="M308.016 138.442C307.97 139.06 308.167 139.672 308.566 140.146C308.965 140.62 309.534 140.92 310.151 140.98C310.451 141.014 310.754 140.988 311.044 140.903C311.334 140.818 311.603 140.675 311.836 140.484C312.07 140.292 312.262 140.056 312.403 139.789C312.543 139.522 312.628 139.229 312.653 138.928C312.7 138.31 312.502 137.698 312.103 137.224C311.704 136.75 311.135 136.45 310.519 136.39C310.219 136.356 309.915 136.382 309.625 136.467C309.336 136.552 309.066 136.695 308.833 136.886C308.6 137.078 308.407 137.314 308.267 137.581C308.126 137.848 308.041 138.141 308.016 138.442Z" fill="#263238"/>
<path d="M291.175 138.762C291.129 139.38 291.326 139.992 291.725 140.466C292.124 140.94 292.693 141.24 293.31 141.3C293.609 141.336 293.912 141.312 294.202 141.228C294.491 141.144 294.761 141.003 294.995 140.812C295.228 140.622 295.421 140.386 295.561 140.119C295.702 139.853 295.787 139.56 295.812 139.26C295.858 138.642 295.661 138.03 295.262 137.556C294.863 137.082 294.294 136.782 293.677 136.722C293.378 136.686 293.075 136.711 292.785 136.794C292.496 136.878 292.226 137.02 291.992 137.21C291.759 137.4 291.566 137.636 291.426 137.903C291.285 138.169 291.2 138.462 291.175 138.762Z" fill="#263238"/>
<path d="M310.115 146.53L302.525 149.306L300.509 136.117C303.426 136.188 307.174 140.79 310.115 146.53Z" fill="#874C4C"/>
<path d="M298.943 168.199C290.107 167.285 281.651 164.38 279.682 160.347C280.037 162.878 281.302 165.193 283.24 166.858C289.17 171.792 299.133 171.318 299.133 171.318L298.943 168.199Z" fill="#874C4C"/>
<path d="M246.285 291.234C242.561 292.29 237.793 287.676 236.488 286.051C235.184 284.427 236.856 280.608 237.674 277.382C238.493 274.156 237.674 268.688 241.671 270.266C245.668 271.843 254.041 282.529 246.285 291.234Z" fill="#874C4C"/>
<path d="M260.588 179.952C250.222 181.494 245.419 183.972 239.714 195.441C233.073 208.795 222.328 227.368 220.667 233.168C219.114 238.564 216.03 242.418 221.936 250.614C227.333 258.121 244.316 277.785 246.842 280.667C249.048 283.217 247.827 290.534 240.236 289.443C240.236 289.443 246.012 294.555 249.179 293.986C251.918 293.499 256.223 291.104 260.173 282.802C262.663 277.56 260.576 273.456 256.793 267.621C252.262 260.659 242.478 241.244 242.478 241.244L259.983 210.183C259.983 210.183 269.412 189.167 260.588 179.952Z" fill="#9E6767"/>
<path d="M365.679 486.26C365.558 484.589 364.803 483.028 363.568 481.896C362.497 480.707 361.039 479.938 359.453 479.725C359.18 479.725 359.038 480.117 359.026 480.33C359.006 480.482 359.026 480.636 359.085 480.777C359.143 480.919 359.237 481.043 359.358 481.136C360.53 481.748 361.624 482.496 362.619 483.366C363.02 483.792 363.359 484.271 363.628 484.789C363.698 484.92 363.761 485.055 363.817 485.193V485.264L363.912 485.513C364.019 485.821 364.161 486.13 364.244 486.45C364.344 487.034 364.395 487.625 364.398 488.217C364.396 488.411 364.441 488.602 364.529 488.774C364.837 489.225 365.264 488.407 365.383 488.098C365.606 487.512 365.706 486.887 365.679 486.26Z" fill="#FAFAFA"/>
<path d="M368.051 478.871C366.894 477.51 365.464 476.407 363.853 475.633C362.236 474.706 360.32 474.451 358.516 474.922C358.065 475.088 358.113 476.108 358.516 476.215C360.156 476.568 361.766 477.048 363.331 477.65C364.566 478.209 365.672 479.016 366.581 480.022C368.846 482.524 369.558 486.011 369.57 489.296C369.57 489.533 369.819 489.51 369.902 489.296C371.681 485.881 370.4 481.682 368.051 478.871Z" fill="#FAFAFA"/>
<path d="M125.835 139.177C132.31 152.318 147.538 163.455 174.176 163.478C186.036 163.478 195.631 161.249 203.209 157.631C208.297 163.893 218.627 166.218 226.158 163.3C226.38 163.213 226.569 163.061 226.703 162.864C226.837 162.668 226.908 162.435 226.908 162.197C226.908 161.959 226.837 161.727 226.703 161.53C226.569 161.334 226.38 161.182 226.158 161.094C218.556 157.916 216.362 152.52 215.769 148.713C218.493 145.919 220.766 142.718 222.506 139.225C225.999 132.327 227.583 124.62 227.093 116.904C226.603 109.187 224.056 101.743 219.718 95.3425C211.132 82.2372 192.251 73.9945 174.164 73.9945C156.078 73.9945 137.197 82.2254 128.61 95.3425C124.285 101.74 121.747 109.176 121.259 116.882C120.772 124.589 122.351 132.286 125.835 139.177Z" fill="white"/>
<path d="M219.161 164.984C213.053 164.984 206.755 162.482 203.091 158.177C194.99 161.972 185.301 163.905 174.223 163.905H174.14C142.284 163.905 129.962 148.487 125.443 139.379C121.923 132.414 120.328 124.636 120.822 116.848C121.316 109.06 123.882 101.545 128.254 95.0816C136.698 82.1898 155.153 73.532 174.176 73.532C193.199 73.532 211.654 82.1779 220.098 95.0697C224.485 101.528 227.065 109.042 227.57 116.833C228.074 124.624 226.486 132.409 222.968 139.379C221.236 142.858 218.989 146.057 216.303 148.867C216.955 152.65 219.256 157.702 226.396 160.727C226.697 160.851 226.953 161.064 227.131 161.337C227.309 161.61 227.4 161.931 227.392 162.257C227.397 162.579 227.301 162.895 227.118 163.161C226.936 163.426 226.675 163.628 226.372 163.739C224.066 164.599 221.621 165.021 219.161 164.984ZM203.328 157.086L203.541 157.358C208.404 163.288 218.473 165.815 226.004 162.885C226.141 162.835 226.259 162.742 226.34 162.621C226.421 162.499 226.461 162.355 226.455 162.209C226.463 162.058 226.425 161.909 226.344 161.781C226.263 161.653 226.144 161.554 226.004 161.498C218.354 158.295 215.982 152.816 215.33 148.784V148.57L215.484 148.416C218.187 145.62 220.436 142.419 222.15 138.928C225.594 132.109 227.156 124.494 226.675 116.87C226.193 109.245 223.685 101.887 219.41 95.556C211.25 83.1149 192.678 74.4215 174.223 74.4215C155.769 74.4215 137.197 83.1149 129.037 95.556C124.747 101.892 122.228 109.259 121.743 116.895C121.257 124.532 122.821 132.159 126.273 138.987C130.697 147.965 142.806 163.016 174.223 163.039C185.313 163.039 195.014 161.083 203.067 157.24L203.328 157.086Z" fill="#455A64"/>
<path d="M185.206 127.649C188.361 131.124 188.645 135.346 188.645 140.411H159.624C159.624 135.346 159.908 131.124 163.063 127.649C166.218 124.174 168.756 122.976 170.049 121.719C170.538 121.395 170.939 120.954 171.217 120.437C171.495 119.919 171.64 119.341 171.64 118.754C171.64 118.167 171.495 117.589 171.217 117.072C170.939 116.554 170.538 116.114 170.049 115.789C168.756 114.532 166.206 113.322 163.063 109.859C159.92 106.396 159.624 102.162 159.624 97.0978H188.645C188.645 102.162 188.361 106.396 185.206 109.859C182.051 113.322 179.513 114.532 178.22 115.789C177.731 116.114 177.33 116.554 177.052 117.072C176.774 117.589 176.629 118.167 176.629 118.754C176.629 119.341 176.774 119.919 177.052 120.437C177.33 120.954 177.731 121.395 178.22 121.719C178.92 122.395 179.999 123.071 181.328 124.091C182.726 125.157 184.024 126.348 185.206 127.649Z" fill="#BA68C8"/>
<path opacity="0.6" d="M185.206 127.649C188.361 131.124 188.645 135.346 188.645 140.411H159.624C159.624 135.346 159.908 131.124 163.063 127.649C166.218 124.174 168.756 122.976 170.049 121.719C170.538 121.395 170.939 120.954 171.217 120.437C171.495 119.919 171.64 119.341 171.64 118.754C171.64 118.167 171.495 117.589 171.217 117.072C170.939 116.554 170.538 116.114 170.049 115.789C168.756 114.532 166.206 113.322 163.063 109.859C159.92 106.396 159.624 102.162 159.624 97.0978H188.645C188.645 102.162 188.361 106.396 185.206 109.859C182.051 113.322 179.513 114.532 178.22 115.789C177.731 116.114 177.33 116.554 177.052 117.072C176.774 117.589 176.629 118.167 176.629 118.754C176.629 119.341 176.774 119.919 177.052 120.437C177.33 120.954 177.731 121.395 178.22 121.719C178.92 122.395 179.999 123.071 181.328 124.091C182.726 125.157 184.024 126.348 185.206 127.649Z" fill="white"/>
<path opacity="0.5" d="M160.442 139.818C160.363 139.818 160.288 139.786 160.232 139.731C160.177 139.675 160.146 139.6 160.146 139.521C160.146 135.263 160.454 131.219 163.455 127.851C164.998 126.161 166.729 124.653 168.614 123.356C169.251 122.928 169.857 122.457 170.428 121.945C170.959 121.575 171.393 121.083 171.692 120.51C171.992 119.937 172.148 119.3 172.148 118.653C172.148 118.007 171.992 117.37 171.692 116.797C171.393 116.224 170.959 115.731 170.428 115.362C169.859 114.853 169.257 114.381 168.626 113.951C166.737 112.649 165.003 111.137 163.455 109.444C160.454 106.135 160.181 102.043 160.146 97.7857C160.146 97.7071 160.177 97.6316 160.232 97.576C160.288 97.5204 160.363 97.4892 160.442 97.4892C160.518 97.4892 160.59 97.5192 160.643 97.5726C160.697 97.6259 160.727 97.6984 160.727 97.7738C160.727 101.925 161.023 105.898 163.882 109.065C165.401 110.72 167.104 112.196 168.958 113.465C169.599 113.917 170.209 114.413 170.784 114.947C171.367 115.373 171.842 115.931 172.169 116.575C172.496 117.219 172.666 117.931 172.666 118.653C172.666 119.376 172.496 120.088 172.169 120.732C171.842 121.376 171.367 121.934 170.784 122.36C170.194 122.892 169.568 123.384 168.91 123.83C167.054 125.1 165.35 126.581 163.834 128.242C160.976 131.397 160.715 135.358 160.679 139.521C160.681 139.59 160.658 139.658 160.614 139.712C160.571 139.766 160.51 139.804 160.442 139.818Z" fill="white"/>
<path d="M183.925 128.74C186.297 131.338 186.795 134.67 186.878 138.501H161.474C161.557 134.611 161.972 131.314 164.427 128.74C166.882 126.167 169.906 125.04 174.176 125.04C175.965 124.979 177.749 125.274 179.423 125.91C181.096 126.545 182.627 127.507 183.925 128.74Z" fill="#FAFAFA"/>
<path d="M186.76 101.166C186.671 103.881 185.672 106.487 183.925 108.566C182.442 110.185 180.778 111.63 178.967 112.872C178.28 113.344 177.627 113.863 177.011 114.425C176.388 114.947 175.88 115.591 175.517 116.317C175.154 117.044 174.944 117.837 174.9 118.647C174.9 120.071 174.662 120.438 174.176 120.438C173.69 120.438 173.453 120.106 173.453 118.647C173.409 117.837 173.198 117.044 172.835 116.317C172.472 115.591 171.964 114.947 171.342 114.425C170.73 113.863 170.08 113.344 169.396 112.872C167.579 111.633 165.912 110.189 164.427 108.566C163.882 107.965 163.412 107.3 163.028 106.586C163.001 106.534 162.991 106.475 162.997 106.417C163.002 106.359 163.025 106.303 163.061 106.257C163.097 106.212 163.145 106.177 163.2 106.157C163.255 106.138 163.315 106.134 163.372 106.147C165.662 106.693 168.018 106.909 170.369 106.787C175.042 106.503 177.141 105.72 180.07 103.229C181.826 101.759 183.154 99.6714 184.328 99.2208C184.62 99.0595 184.953 98.9885 185.286 99.0169C185.618 99.0452 185.934 99.1715 186.195 99.3798C186.455 99.5881 186.648 99.8691 186.748 100.187C186.849 100.505 186.853 100.846 186.76 101.166Z" fill="#FAFAFA"/>
<path d="M174.176 123.38C174.654 123.38 175.042 122.992 175.042 122.514C175.042 122.036 174.654 121.648 174.176 121.648C173.698 121.648 173.31 122.036 173.31 122.514C173.31 122.992 173.698 123.38 174.176 123.38Z" fill="#FAFAFA"/>
<path opacity="0.3" d="M181.328 124.091C182.726 125.157 184.024 126.348 185.206 127.649C188.361 131.124 188.645 135.346 188.645 140.411H162.956C166.835 140.411 177.687 138.596 181.565 134.801C185.668 130.756 183.652 127.329 181.328 124.091Z" fill="#BA68C8"/>
<path opacity="0.3" d="M188.645 97.1334C188.645 102.198 188.361 106.432 185.206 109.895C182.051 113.358 179.513 114.568 178.22 115.825C177.731 116.149 177.33 116.59 177.052 117.107C176.774 117.625 176.629 118.203 176.629 118.79C176.629 119.377 176.774 119.955 177.052 120.472C177.33 120.99 177.731 121.43 178.22 121.755C173.963 119.169 174.662 116.572 175.445 114.84C176.228 113.109 181.541 109.835 181.245 105.044C180.948 100.253 173.488 97.169 166.396 97.169L188.645 97.1334Z" fill="#BA68C8"/>
<path d="M191.266 93.2433C191.266 93.9259 190.995 94.5805 190.513 95.0631C190.03 95.5458 189.375 95.8169 188.693 95.8169H159.671C158.989 95.8169 158.334 95.5458 157.851 95.0631C157.369 94.5805 157.098 93.9259 157.098 93.2433H191.266Z" fill="#BA68C8"/>
<path opacity="0.2" d="M179.525 93.2433C179.522 93.927 179.248 94.5815 178.763 95.0639C178.279 95.5462 177.623 95.8169 176.939 95.8169H159.671C158.989 95.8169 158.334 95.5458 157.851 95.0631C157.369 94.5805 157.098 93.9259 157.098 93.2433H179.525Z" fill="white"/>
<path d="M193.318 90.053V91.0492C193.318 91.6311 193.087 92.1892 192.675 92.6007C192.264 93.0122 191.706 93.2433 191.124 93.2433H157.264C156.682 93.2433 156.124 93.0122 155.712 92.6007C155.301 92.1892 155.07 91.6311 155.07 91.0492V90.053C155.073 89.9324 155.123 89.8177 155.209 89.7335C155.296 89.6494 155.411 89.6023 155.532 89.6023H192.832C192.894 89.5974 192.956 89.6054 193.015 89.6258C193.074 89.6463 193.128 89.6787 193.174 89.721C193.219 89.7634 193.256 89.8147 193.281 89.8719C193.306 89.929 193.318 89.9907 193.318 90.053Z" fill="#BA68C8"/>
<path opacity="0.15" d="M193.247 90.053V91.0492C193.247 91.6311 193.016 92.1892 192.604 92.6007C192.193 93.0121 191.635 93.2433 191.053 93.2433H157.228C156.646 93.2433 156.088 93.0121 155.677 92.6007C155.265 92.1892 155.034 91.6311 155.034 91.0492V90.053C155.034 89.9334 155.081 89.8188 155.166 89.7343C155.25 89.6498 155.365 89.6023 155.485 89.6023H192.784C192.905 89.6023 193.021 89.6493 193.107 89.7335C193.194 89.8177 193.244 89.9324 193.247 90.053Z" fill="black"/>
<path d="M183.557 90.053V91.0492C183.557 91.6311 183.326 92.1892 182.915 92.6007C182.503 93.0121 181.945 93.2433 181.363 93.2433H157.264C156.682 93.2433 156.124 93.0121 155.712 92.6007C155.301 92.1892 155.07 91.6311 155.07 91.0492V90.053C155.073 89.9324 155.123 89.8177 155.209 89.7335C155.296 89.6493 155.411 89.6023 155.532 89.6023H183.107C183.226 89.6023 183.341 89.6498 183.425 89.7343C183.51 89.8188 183.557 89.9334 183.557 90.053Z" fill="#BA68C8"/>
<path opacity="0.2" d="M160.881 93.2433C160.456 92.732 160.223 92.0879 160.223 91.4228C160.223 90.7577 160.456 90.1136 160.881 89.6023H168.649C169.081 90.1105 169.318 90.7558 169.318 91.4228C169.318 92.0898 169.081 92.7351 168.649 93.2433H160.881Z" fill="white"/>
<path opacity="0.2" d="M162.197 95.8169C161.912 95.4488 161.757 94.9961 161.757 94.5301C161.757 94.0642 161.912 93.6115 162.197 93.2433H167.345C167.63 93.6115 167.785 94.0642 167.785 94.5301C167.785 94.9961 167.63 95.4488 167.345 95.8169H162.197Z" fill="white"/>
<path d="M157.098 144.052C157.098 143.369 157.369 142.714 157.851 142.232C158.334 141.749 158.989 141.478 159.671 141.478H188.693C189.375 141.478 190.03 141.749 190.513 142.232C190.995 142.714 191.266 143.369 191.266 144.052H157.098Z" fill="#BA68C8"/>
<path opacity="0.2" d="M168.839 144.052C168.839 143.369 169.11 142.714 169.593 142.232C170.075 141.749 170.73 141.478 171.413 141.478H188.693C189.375 141.478 190.03 141.749 190.512 142.232C190.995 142.714 191.266 143.369 191.266 144.052H168.839Z" fill="white"/>
<path d="M155.07 147.242V146.246C155.07 145.664 155.301 145.106 155.712 144.694C156.124 144.283 156.682 144.052 157.264 144.052H191.088C191.67 144.052 192.228 144.283 192.64 144.694C193.051 145.106 193.283 145.664 193.283 146.246V147.242C193.284 147.302 193.274 147.362 193.252 147.418C193.23 147.474 193.197 147.525 193.155 147.568C193.113 147.611 193.063 147.646 193.007 147.669C192.952 147.692 192.892 147.704 192.832 147.704H155.532C155.409 147.704 155.292 147.656 155.205 147.569C155.118 147.482 155.07 147.365 155.07 147.242Z" fill="#BA68C8"/>
<path opacity="0.15" d="M155.07 147.242V146.246C155.07 145.664 155.301 145.106 155.712 144.694C156.124 144.283 156.682 144.052 157.264 144.052H191.088C191.67 144.052 192.228 144.283 192.64 144.694C193.051 145.106 193.283 145.664 193.283 146.246V147.242C193.284 147.302 193.274 147.362 193.252 147.418C193.23 147.474 193.197 147.525 193.155 147.568C193.113 147.611 193.063 147.646 193.007 147.669C192.952 147.692 192.892 147.704 192.832 147.704H155.532C155.409 147.704 155.292 147.656 155.205 147.569C155.118 147.482 155.07 147.365 155.07 147.242Z" fill="black"/>
<path d="M164.854 147.242V146.246C164.854 145.664 165.085 145.106 165.497 144.694C165.908 144.283 166.466 144.052 167.048 144.052H191.148C191.73 144.052 192.288 144.283 192.699 144.694C193.111 145.106 193.342 145.664 193.342 146.246V147.242C193.343 147.302 193.333 147.362 193.311 147.418C193.289 147.474 193.256 147.525 193.214 147.568C193.172 147.611 193.122 147.646 193.066 147.669C193.011 147.692 192.951 147.704 192.891 147.704H165.257C165.144 147.693 165.04 147.638 164.965 147.552C164.89 147.467 164.85 147.356 164.854 147.242Z" fill="#BA68C8"/>
<path opacity="0.2" d="M187.471 144.052C187.902 144.563 188.138 145.21 188.138 145.878C188.138 146.546 187.902 147.193 187.471 147.704H179.703C179.276 147.191 179.043 146.545 179.043 145.878C179.043 145.211 179.276 144.565 179.703 144.052H187.471Z" fill="white"/>
<path opacity="0.2" d="M186.202 141.478C186.488 141.846 186.643 142.299 186.643 142.765C186.643 143.231 186.488 143.683 186.202 144.052H181.043C180.759 143.683 180.605 143.23 180.605 142.765C180.605 142.299 180.759 141.847 181.043 141.478H186.202Z" fill="white"/>
</svg>
